<svg width="15" height="16" viewBox="0 0 15 16" fill="none" xmlns="http://www.w3.org/2000/svg">
<path d="M13.3593 6.67407L7.75042 12.2829C7.66995 12.3634 7.53806 12.3621 7.45602 12.2801C7.37397 12.1981 7.3727 12.0662 7.45317 11.9857L12.8096 6.62931L4.83534 4.42112L4.90497 4.69417C4.93598 4.80545 4.87133 4.91904 4.76063 4.9479C4.64993 4.97676 4.53506 4.9099 4.50406 4.79862L4.33715 4.176C4.31702 4.10397 4.33689 4.02743 4.38888 3.97524C4.44097 3.92315 4.51742 3.90338 4.58944 3.92331L13.2626 6.32489C13.3346 6.34482 13.3913 6.4015 13.4112 6.47352C13.4312 6.54554 13.4114 6.62198 13.3593 6.67407Z" fill="#BC01FD"/>
<path d="M6.43017 13.603L5.9804 14.0528C5.92831 14.1049 5.85186 14.1247 5.77984 14.1047C5.70782 14.0848 5.65115 14.0281 5.63122 13.9561L3.22964 5.28294C3.20971 5.21092 3.22948 5.13448 3.28157 5.08238C3.33366 5.03029 3.4101 5.01052 3.48212 5.03045L11.2174 7.17235C11.3893 7.22523 11.4199 7.31503 11.3912 7.42573C11.369 7.51176 11.2836 7.60695 11.0736 7.55936L3.72744 5.52826L5.93564 13.5031L6.13293 13.3058C6.21339 13.2253 6.34529 13.2266 6.42733 13.3086C6.50937 13.3907 6.51064 13.5226 6.43017 13.603Z" fill="#BC01FD"/>
<path d="M13.7888 8.21094L7.51733 14.4824C7.46524 14.5345 7.38879 14.5543 7.31677 14.5344C7.24475 14.5144 7.18808 14.4578 7.16815 14.3857L5.0216 6.63369C4.99079 6.52241 5.05563 6.40882 5.16633 6.38016C5.27704 6.3515 5.3919 6.41855 5.42271 6.52982L7.47257 13.9327L13.2395 8.16579L12.9842 8.07993C12.8729 8.04892 12.8061 7.93406 12.8349 7.82336C12.8638 7.71266 12.9774 7.64801 13.0887 7.67902L13.6926 7.86186C13.7645 7.88189 13.8212 7.93856 13.841 8.01049C13.861 8.08251 13.8411 8.15885 13.789 8.21094L13.7888 8.21094Z" fill="#BC01FD"/>
</svg>
