<svg width="12" height="12" viewBox="0 0 12 12" fill="none" xmlns="http://www.w3.org/2000/svg">
<path d="M2.20525 5.71429L2.03341 4.85714C1.91885 4.80952 1.81146 4.75952 1.71122 4.70714C1.61098 4.65476 1.50835 4.59048 1.40334 4.51429L0.572792 4.77143L0 3.8L0.658711 3.22857C0.639618 3.10476 0.630072 2.98095 0.630072 2.85714C0.630072 2.73333 0.639618 2.60952 0.658711 2.48571L0 1.91429L0.572792 0.942857L1.40334 1.2C1.50835 1.12381 1.61098 1.05952 1.71122 1.00714C1.81146 0.954762 1.91885 0.904762 2.03341 0.857143L2.20525 0H3.35084L3.52267 0.857143C3.63723 0.904762 3.74463 0.954762 3.84487 1.00714C3.94511 1.05952 4.04773 1.12381 4.15274 1.2L4.98329 0.942857L5.55609 1.91429L4.89737 2.48571C4.91647 2.60952 4.92601 2.73333 4.92601 2.85714C4.92601 2.98095 4.91647 3.10476 4.89737 3.22857L5.55609 3.8L4.98329 4.77143L4.15274 4.51429C4.04773 4.59048 3.94511 4.65476 3.84487 4.70714C3.74463 4.75952 3.63723 4.80952 3.52267 4.85714L3.35084 5.71429H2.20525ZM2.77804 4C3.09308 4 3.36277 3.8881 3.58711 3.66429C3.81146 3.44048 3.92363 3.17143 3.92363 2.85714C3.92363 2.54286 3.81146 2.27381 3.58711 2.05C3.36277 1.82619 3.09308 1.71429 2.77804 1.71429C2.46301 1.71429 2.19332 1.82619 1.96897 2.05C1.74463 2.27381 1.63246 2.54286 1.63246 2.85714C1.63246 3.17143 1.74463 3.44048 1.96897 3.66429C2.19332 3.8881 2.46301 4 2.77804 4ZM7.33174 12L7.07399 10.8C6.91169 10.7429 6.76134 10.6738 6.62291 10.5929C6.48449 10.5119 6.34845 10.419 6.2148 10.3143L5.06921 10.6857L4.2673 9.31429L5.18377 8.51429C5.16468 8.34286 5.15513 8.17143 5.15513 8C5.15513 7.82857 5.16468 7.65714 5.18377 7.48571L4.2673 6.68571L5.06921 5.31429L6.2148 5.68571C6.34845 5.58095 6.48449 5.4881 6.62291 5.40714C6.76134 5.32619 6.91169 5.25714 7.07399 5.2L7.33174 4H8.93556L9.19332 5.2C9.35561 5.25714 9.50597 5.32619 9.64439 5.40714C9.78282 5.4881 9.91885 5.58095 10.0525 5.68571L11.1981 5.31429L12 6.68571L11.0835 7.48571C11.1026 7.65714 11.1122 7.82857 11.1122 8C11.1122 8.17143 11.1026 8.34286 11.0835 8.51429L12 9.31429L11.1981 10.6857L10.0525 10.3143C9.91885 10.419 9.78282 10.5119 9.64439 10.5929C9.50597 10.6738 9.35561 10.7429 9.19332 10.8L8.93556 12H7.33174ZM8.13365 9.71429C8.61098 9.71429 9.01671 9.54762 9.35084 9.21429C9.68496 8.88095 9.85203 8.47619 9.85203 8C9.85203 7.52381 9.68496 7.11905 9.35084 6.78571C9.01671 6.45238 8.61098 6.28571 8.13365 6.28571C7.65632 6.28571 7.2506 6.45238 6.91647 6.78571C6.58234 7.11905 6.41527 7.52381 6.41527 8C6.41527 8.47619 6.58234 8.88095 6.91647 9.21429C7.2506 9.54762 7.65632 9.71429 8.13365 9.71429Z" fill="#E8EAED"/>
</svg>
