<svg width="47" height="47" viewBox="0 0 47 47" fill="none" xmlns="http://www.w3.org/2000/svg">
<path d="M41.5 19.288C41.5 10.666 41.5 6.35725 38.863 3.6775C36.226 0.99775 31.9847 1 23.5 1H19C10.5153 1 6.27175 1 3.637 3.6775C1.00225 6.355 1 10.666 1 19.288C1 27.91 1 32.2188 3.637 34.8985C4.6945 35.9717 6.0085 36.6152 7.75 37" stroke="#BC01FD" stroke-width="1.5" stroke-linecap="round" stroke-linejoin="round"/>
<path d="M46 35.875C46 31.6562 46 29.548 44.9268 28.0675C44.5798 27.59 44.16 27.1702 43.6825 26.8233C42.202 25.75 40.0938 25.75 35.875 25.75H24.625C20.4062 25.75 18.298 25.75 16.8175 26.8233C16.34 27.1702 15.9202 27.59 15.5733 28.0675C14.5 29.5502 14.5 31.6585 14.5 35.875C14.5 40.0915 14.5 42.202 15.5733 43.6825C15.9208 44.1601 16.3415 44.58 16.8198 44.9268C18.298 46 20.4062 46 24.625 46H35.875C40.0938 46 42.202 46 43.6825 44.9268C44.16 44.5798 44.5798 44.16 44.9268 43.6825C46 42.202 46 40.0938 46 35.875Z" stroke="#BC01FD" stroke-width="1.5" stroke-linecap="round" stroke-linejoin="round"/>
<path d="M33.625 32.5L35.695 34.2842C36.5658 35.0335 37 35.4092 37 35.875C37 36.3408 36.5658 36.7165 35.695 37.4658L33.625 39.25M26.875 32.5L24.805 34.2842C23.9342 35.0335 23.5 35.4092 23.5 35.875C23.5 36.3408 23.9342 36.7165 24.805 37.4658L26.875 39.25M2.125 10H40.375" stroke="#BC01FD" stroke-width="1.5" stroke-linecap="round" stroke-linejoin="round"/>
</svg>
