<svg width="321" height="64" viewBox="0 0 321 64" fill="none" xmlns="http://www.w3.org/2000/svg">
<path d="M56.52 57.9426C56.52 60.5135 54.395 62.6059 51.8565 62.6059C49.8329 62.6059 48.0851 61.3367 47.5377 59.6579L43.6974 49.4757H13.3197L9.47936 59.6579C8.82647 61.3043 7.0787 62.6059 5.16058 62.6059C2.58957 62.6059 0.49707 60.4811 0.49707 57.9426C0.49707 57.3952 0.667362 56.7423 0.874179 56.1949L21.0327 5.66087C22.1317 2.71285 25.0798 0.519043 28.4741 0.519043C31.8683 0.519043 34.8165 2.71285 35.9844 5.66087L56.1429 56.1949C56.3497 56.6734 56.52 57.3263 56.52 57.9426ZM40.6803 41.3493L28.4741 8.98599L16.3692 41.3493H40.6763H40.6803Z" fill="white"/>
<path d="M116.416 34.9383V48.9607C116.416 51.4302 115.763 53.2793 113.946 54.9257C108.257 60.0675 100.848 63.3602 91.7642 63.3602C74.2457 63.3602 60.0483 50.7084 60.0483 31.6456C60.0483 12.5828 74.2781 0 91.7642 0C100.917 0 107.64 3.22376 112.782 8.32906C113.606 9.05086 114.052 10.1457 114.052 11.346C114.052 13.7466 112.134 15.5633 109.733 15.5633C108.634 15.5633 107.539 15.1172 106.716 14.363C102.944 10.5918 97.7335 8.12225 91.7683 8.12225C79.0146 8.12225 69.4808 17.8584 69.4808 31.6051C69.4808 45.3517 79.0106 55.1568 91.7683 55.1568C98.5568 55.1568 104.315 51.8641 107.267 49.0904V38.085H91.2208C89.0269 38.085 87.1737 36.2684 87.1737 33.9692C87.1737 31.67 88.9904 30.0276 91.2208 30.0276H111.586C114.672 30.0601 116.42 31.8119 116.42 34.9302L116.416 34.9383Z" fill="white"/>
<path d="M128.144 58.0478V5.14565C128.144 2.67612 130.268 0.55127 132.807 0.55127C135.346 0.55127 137.3 2.67612 137.3 5.14565V58.0478C137.3 60.5174 135.277 62.6422 132.807 62.6422C130.337 62.6422 128.144 60.5174 128.144 58.0478Z" fill="white"/>
<path d="M150.979 57.326V5.14565C150.979 2.67612 153.103 0.55127 155.642 0.55127C158.181 0.55127 160.135 2.67612 160.135 5.14565V54.1023H184.239C186.433 54.1023 188.356 55.85 188.356 58.0438C188.356 60.2376 186.437 62.1596 184.239 62.1596H155.954C152.73 62.1921 150.983 60.4444 150.983 57.326H150.979Z" fill="white"/>
<path d="M198.052 58.0478V5.14565C198.052 2.67612 200.177 0.55127 202.715 0.55127C205.254 0.55127 207.208 2.67612 207.208 5.14565V58.0478C207.208 60.5174 205.185 62.6422 202.715 62.6422C200.246 62.6422 198.052 60.5174 198.052 58.0478Z" fill="white"/>
<path d="M235.834 58.0482V9.09156H220.404C218.21 9.09156 216.356 7.34385 216.356 5.15007C216.356 2.95628 218.173 1.03418 220.404 1.03418H260.311C262.505 1.03418 264.427 2.85085 264.427 5.15007C264.427 7.44928 262.509 9.09156 260.311 9.09156H244.986V58.0482C244.986 60.5177 242.861 62.6426 240.392 62.6426C237.922 62.6426 235.834 60.5177 235.834 58.0482Z" fill="white"/>
<path d="M319.834 7.33942L300.223 36.5844V58.0478C300.223 60.5174 298.199 62.6422 295.628 62.6422C293.057 62.6422 291.034 60.5174 291.034 58.0478V36.5844L271.321 7.40837C270.875 6.75551 270.6 5.86744 270.6 4.93884C270.6 2.46931 272.623 0.55127 274.987 0.55127C276.528 0.55127 277.935 1.27306 278.759 2.57474L295.628 28.4257L312.393 2.57474C313.216 1.37444 314.587 0.55127 316.164 0.55127C318.565 0.55127 320.552 2.46931 320.552 4.93884C320.552 5.86339 320.276 6.68656 319.83 7.33942H319.834Z" fill="white"/>
</svg>
