<svg width="321" height="15" viewBox="0 0 321 15" fill="none" xmlns="http://www.w3.org/2000/svg">
<path d="M11.3247 8.73634C11.5449 8.73634 11.7438 8.82172 11.9212 8.99247C12.1048 9.15733 12.1965 9.3428 12.1965 9.54888C12.1965 9.71374 12.1659 9.85505 12.1048 9.97281C11.7989 10.6205 11.3645 11.224 10.8016 11.7833C10.2448 12.3368 9.58102 12.7813 8.81013 13.117C8.03925 13.4526 7.17353 13.6204 6.21298 13.6204C5.26467 13.6204 4.40813 13.4467 3.64336 13.0993C2.87859 12.7519 2.22395 12.2779 1.67943 11.6774C1.14103 11.0709 0.725001 10.3761 0.431329 9.59303C0.143777 8.80405 0 7.97091 0 7.09361C0 6.22809 0.146836 5.40378 0.440507 4.62069C0.734178 3.83759 1.15327 3.14576 1.69779 2.54519C2.2423 1.93874 2.89388 1.46182 3.65253 1.11443C4.41119 0.767041 5.25549 0.593347 6.18545 0.593347C7.12764 0.593347 7.98113 0.755265 8.74589 1.0791C9.51678 1.39705 10.1837 1.82392 10.7465 2.35972C11.3155 2.88964 11.7591 3.47254 12.0772 4.10844C12.1445 4.23208 12.1782 4.36162 12.1782 4.49704C12.1782 4.71489 12.0956 4.91508 11.9304 5.09761C11.7713 5.27424 11.5847 5.36256 11.3706 5.36256C11.1626 5.36256 10.9729 5.32135 10.8016 5.23892C10.6364 5.1506 10.511 5.02106 10.4253 4.85031C10.0827 4.16732 9.54431 3.58147 8.81013 3.09277C8.08207 2.60407 7.20718 2.35972 6.18545 2.35972C5.29832 2.35972 4.52743 2.57758 3.87279 3.01328C3.22426 3.44899 2.72258 4.02895 2.36772 4.75316C2.01287 5.47149 1.83544 6.25753 1.83544 7.11128C1.83544 7.97091 2.00981 8.75989 2.35855 9.47822C2.7134 10.1965 3.21509 10.7706 3.86361 11.2004C4.51825 11.6303 5.29526 11.8452 6.19463 11.8452C6.86762 11.8452 7.4825 11.7274 8.03925 11.4919C8.60212 11.2505 9.08851 10.9325 9.49843 10.538C9.90834 10.1436 10.2204 9.71962 10.4345 9.26625C10.5997 8.91298 10.8964 8.73634 11.3247 8.73634Z" fill="#1D1D1D"/>
<path d="M23.3788 12.7902C23.3788 13.0198 23.2901 13.22 23.1127 13.3907C22.9413 13.5556 22.7547 13.638 22.5528 13.638C22.3815 13.638 22.2316 13.5792 22.1032 13.4614C21.9747 13.3495 21.886 13.2642 21.837 13.2053C21.2803 12.8284 20.7969 12.4016 20.387 11.9247C19.9832 11.4418 19.6375 10.9178 19.35 10.3526C19.0991 9.84622 18.8422 9.45172 18.5791 9.1691C18.3221 8.88648 18.0101 8.68629 17.643 8.56854C17.2759 8.45078 16.7987 8.38895 16.2114 8.38307L15.3763 8.37423L15.3854 12.6489V12.6665C15.3854 12.902 15.2937 13.1081 15.1101 13.2848C14.9327 13.4614 14.7186 13.5497 14.4677 13.5497C14.2169 13.5497 13.9997 13.4555 13.8161 13.2671C13.6387 13.0787 13.55 12.8549 13.55 12.5959L13.5225 1.63551C13.5225 1.38822 13.6112 1.18214 13.7886 1.01728C13.9721 0.846528 14.1863 0.758209 14.431 0.752321L16.8721 0.743489H17.0832C18.1355 0.743489 19.0747 0.893631 19.9006 1.19392C20.7266 1.48831 21.3782 1.93285 21.8554 2.52753C22.3326 3.11632 22.5712 3.84937 22.5712 4.72667C22.5712 5.29191 22.4488 5.79533 22.2041 6.23692C21.9655 6.67851 21.6504 7.0524 21.2589 7.35857C20.8673 7.66474 20.4451 7.9032 19.9924 8.07395C20.2004 8.32713 20.4084 8.63919 20.6164 9.01013C20.9713 9.66369 21.317 10.2436 21.6535 10.75C21.99 11.2505 22.4335 11.6921 22.9842 12.0748C23.0943 12.1454 23.1861 12.2455 23.2595 12.3751C23.339 12.4987 23.3788 12.6371 23.3788 12.7902ZM17.1291 2.50987H15.3579L15.3763 6.7315L17.1475 6.71384C18.2732 6.70207 19.1542 6.5372 19.7905 6.21926C20.4329 5.90131 20.7541 5.392 20.7541 4.69134C20.7541 3.97301 20.4146 3.43133 19.7354 3.06627C19.0563 2.69534 18.1875 2.50987 17.1291 2.50987Z" fill="#1D1D1D"/>
<path d="M24.7598 1.62668C24.7598 1.39116 24.8485 1.19097 25.0259 1.02611C25.2095 0.85536 25.4267 0.769985 25.6775 0.769985L33.5424 0.778817H33.5516C33.8024 0.778817 34.0165 0.867136 34.194 1.04377C34.3775 1.21452 34.4693 1.4206 34.4693 1.66201C34.4693 1.90341 34.3775 2.11243 34.194 2.28907C34.0165 2.45982 33.8024 2.54519 33.5516 2.54519H33.5424L26.5952 2.53636L26.6044 6.15743L32.7899 6.20159C33.0529 6.20159 33.2701 6.28991 33.4414 6.46655C33.6189 6.64319 33.7076 6.86987 33.7076 7.1466C33.7076 7.38212 33.6127 7.58231 33.4231 7.74717C33.2334 7.90615 33.0223 7.98563 32.7899 7.98563H32.7807L26.6136 7.94147L26.6228 11.6774L33.5424 11.6685H33.5516C33.8024 11.6685 34.0165 11.7568 34.194 11.9335C34.3775 12.1042 34.4693 12.3103 34.4693 12.5517C34.4693 12.7931 34.3775 13.0021 34.194 13.1788C34.0165 13.3495 33.8024 13.4349 33.5516 13.4349H33.5424L25.705 13.4437C25.4542 13.4437 25.237 13.3584 25.0535 13.1876C24.876 13.011 24.7873 12.8049 24.7873 12.5694L24.7598 1.62668Z" fill="#1D1D1D"/>
<path d="M40.705 1.1056C40.7723 0.958398 40.8855 0.834752 41.0446 0.734657C41.2098 0.628675 41.378 0.575684 41.5493 0.575684C41.7145 0.575684 41.8797 0.628675 42.0449 0.734657C42.2162 0.834752 42.3325 0.958398 42.3936 1.1056L47.4411 12.3751C47.4962 12.4928 47.5237 12.6135 47.5237 12.7372C47.5237 12.9786 47.4319 13.1876 47.2484 13.3642C47.071 13.535 46.8568 13.6204 46.606 13.6204C46.4347 13.6204 46.2664 13.5674 46.1012 13.4614C45.936 13.3554 45.8198 13.2288 45.7525 13.0816L44.1832 9.57537L38.9522 9.50472L37.3462 13.0905C37.285 13.2377 37.1718 13.3642 37.0066 13.4702C36.8414 13.5821 36.6732 13.638 36.5019 13.638C36.251 13.638 36.0338 13.5527 35.8503 13.3819C35.6728 13.2053 35.5841 12.9963 35.5841 12.7548C35.5841 12.6312 35.6117 12.5105 35.6667 12.3927L40.705 1.1056ZM41.5493 3.69334L39.7414 7.74717L43.3848 7.79133L41.5493 3.69334Z" fill="#1D1D1D"/>
<path d="M48.3908 1.67084C48.3908 1.42943 48.4795 1.22335 48.6569 1.05261C48.8404 0.875968 49.0576 0.787649 49.3085 0.787649H49.3177L58.4857 0.734657H58.5041C58.7549 0.734657 58.969 0.822976 59.1465 0.999614C59.33 1.17036 59.4218 1.37644 59.4218 1.61785C59.4218 1.85925 59.33 2.06827 59.1465 2.24491C58.969 2.41566 58.7549 2.50103 58.5041 2.50103H58.4949L54.8424 2.5187L54.7965 12.6577V12.6665C54.7965 12.902 54.7047 13.1052 54.5212 13.2759C54.3437 13.4467 54.1296 13.5321 53.8787 13.5321C53.6279 13.5321 53.4107 13.4467 53.2272 13.2759C53.0497 13.1052 52.961 12.902 52.961 12.6665V12.6489L53.0069 2.52753L49.3177 2.55403H49.3085C49.0576 2.55403 48.8404 2.46865 48.6569 2.2979C48.4795 2.12126 48.3908 1.91224 48.3908 1.67084Z" fill="#1D1D1D"/>
<path d="M61.6838 13.5144C61.4329 13.5144 61.2157 13.429 61.0322 13.2583C60.8548 13.0816 60.7661 12.8726 60.7661 12.6312L60.7569 1.58252C60.7569 1.35878 60.8425 1.15564 61.0138 0.973118C61.1852 0.790593 61.3901 0.69933 61.6287 0.69933C61.9102 0.69933 62.1396 0.784705 62.317 0.955454C62.5006 1.12032 62.5923 1.32934 62.5923 1.58252L62.6015 12.6312C62.6015 12.8726 62.5097 13.0816 62.3262 13.2583C62.1488 13.429 61.9346 13.5144 61.6838 13.5144Z" fill="#1D1D1D"/>
<path d="M63.9458 1.59135C63.9458 1.38527 64.0345 1.19686 64.2119 1.02611C64.3955 0.85536 64.5974 0.769985 64.8176 0.769985C65.2581 0.769985 65.5549 0.946623 65.7078 1.2999L70.1404 10.9973L74.1325 1.20275C74.2793 0.831808 74.5791 0.646339 75.0319 0.646339C75.2582 0.646339 75.4601 0.731713 75.6376 0.902463C75.815 1.06732 75.9037 1.25574 75.9037 1.4677C75.9037 1.63257 75.8823 1.76799 75.8395 1.87397L71.049 13.5674C70.9878 13.7146 70.8777 13.8441 70.7186 13.956C70.5656 14.0737 70.3913 14.1326 70.1955 14.1326C69.81 14.1326 69.5317 13.956 69.3604 13.6027L64.0284 2.02411C63.9733 1.91813 63.9458 1.77388 63.9458 1.59135Z" fill="#1D1D1D"/>
<path d="M77.0186 1.62668C77.0186 1.39116 77.1073 1.19097 77.2847 1.02611C77.4682 0.85536 77.6854 0.769985 77.9363 0.769985L85.8012 0.778817H85.8103C86.0612 0.778817 86.2753 0.867136 86.4527 1.04377C86.6363 1.21452 86.7281 1.4206 86.7281 1.66201C86.7281 1.90341 86.6363 2.11243 86.4527 2.28907C86.2753 2.45982 86.0612 2.54519 85.8103 2.54519H85.8012L78.854 2.53636L78.8632 6.15743L85.0486 6.20159C85.3117 6.20159 85.5289 6.28991 85.7002 6.46655C85.8776 6.64319 85.9664 6.86987 85.9664 7.1466C85.9664 7.38212 85.8715 7.58231 85.6819 7.74717C85.4922 7.90615 85.2811 7.98563 85.0486 7.98563H85.0395L78.8724 7.94147L78.8815 11.6774L85.8012 11.6685H85.8103C86.0612 11.6685 86.2753 11.7568 86.4527 11.9335C86.6363 12.1042 86.7281 12.3103 86.7281 12.5517C86.7281 12.7931 86.6363 13.0021 86.4527 13.1788C86.2753 13.3495 86.0612 13.4349 85.8103 13.4349H85.8012L77.9638 13.4437C77.713 13.4437 77.4958 13.3584 77.3122 13.1876C77.1348 13.011 77.0461 12.8049 77.0461 12.5694L77.0186 1.62668Z" fill="#1D1D1D"/>
<path d="M97.3047 7.35723C97.3047 6.24777 98.2689 5.3208 99.4229 5.3208C100.577 5.3208 101.541 6.24777 101.541 7.35723C101.541 8.46669 100.577 9.39366 99.4229 9.39366C98.2689 9.39366 97.3047 8.46669 97.3047 7.35723Z" fill="#1D1D1D"/>
<path d="M194.615 7.35723C194.615 6.24777 195.579 5.3208 196.733 5.3208C197.887 5.3208 198.852 6.24777 198.852 7.35723C198.852 8.46669 197.887 9.39366 196.733 9.39366C195.579 9.39366 194.615 8.46669 194.615 7.35723Z" fill="#1D1D1D"/>
<path d="M116.407 0.767786H116.548C117.649 0.767786 118.616 0.956839 119.448 1.33495C120.28 1.70695 120.975 2.21313 121.532 2.85347C122.095 3.48771 122.517 4.20123 122.799 4.99404C123.087 5.78074 123.231 6.58574 123.231 7.40904C123.231 8.66533 122.94 9.7844 122.358 10.7663C121.782 11.7481 120.928 12.5196 119.795 13.0806C118.669 13.6417 117.28 13.9222 115.628 13.9222H115.187L113.047 13.9039C112.797 13.8978 112.578 13.8033 112.39 13.6203C112.208 13.4374 112.118 13.2178 112.118 12.9617L112.183 1.73745C112.183 1.49351 112.274 1.28311 112.456 1.10625C112.637 0.923297 112.853 0.828771 113.103 0.822672L116.407 0.767786ZM121.56 7.35415C121.56 6.21983 121.313 5.30506 120.818 4.60983C120.324 3.91461 119.63 3.40843 118.735 3.09131C117.84 2.76809 116.789 2.60648 115.581 2.60648C115.325 2.60648 115.068 2.60953 114.811 2.61563C114.561 2.62173 114.308 2.63087 114.051 2.64307L113.995 12.0561L115.206 12.0744C116.463 12.0744 117.568 11.928 118.519 11.6353C119.476 11.3365 120.221 10.8425 120.753 10.1534C121.291 9.46423 121.56 8.53116 121.56 7.35415Z" fill="#1D1D1D"/>
<path d="M126.632 14.0046C126.376 14.0046 126.154 13.9161 125.966 13.7393C125.785 13.5563 125.694 13.3398 125.694 13.0898L125.684 1.64597C125.684 1.41423 125.772 1.20383 125.947 1.01477C126.122 0.825722 126.332 0.731195 126.576 0.731195C126.864 0.731195 127.099 0.819623 127.28 0.996479C127.468 1.16724 127.562 1.38373 127.562 1.64597L127.571 13.0898C127.571 13.3398 127.477 13.5563 127.289 13.7393C127.108 13.9161 126.889 14.0046 126.632 14.0046Z" fill="#1D1D1D"/>
<path d="M129.612 7.51881C129.612 6.62233 129.775 5.7594 130.1 4.93C130.432 4.10061 130.898 3.36269 131.498 2.71625C132.105 2.06371 132.825 1.54839 133.657 1.17029C134.496 0.79218 135.422 0.603127 136.435 0.603127C137.368 0.603127 138.213 0.728146 138.97 0.978184C139.733 1.22822 140.446 1.58193 141.11 2.03932C141.379 2.21618 141.513 2.46012 141.513 2.77114C141.513 3.01508 141.419 3.22853 141.232 3.41148C141.05 3.58834 140.831 3.67676 140.575 3.67676C140.374 3.67676 140.19 3.61883 140.021 3.50296C139.533 3.17974 138.982 2.9236 138.369 2.73455C137.756 2.5394 137.127 2.44182 136.482 2.44182C135.75 2.44182 135.078 2.57904 134.464 2.85347C133.857 3.1218 133.329 3.49381 132.878 3.96949C132.434 4.43908 132.087 4.97574 131.836 5.57949C131.592 6.18324 131.47 6.81749 131.47 7.48222C131.47 8.3909 131.674 9.19895 132.08 9.90637C132.493 10.6138 133.066 11.1688 133.798 11.5713C134.536 11.9738 135.394 12.175 136.37 12.175C136.908 12.175 137.44 12.1232 137.965 12.0195C138.497 11.9158 138.982 11.7969 139.42 11.6627L139.392 8.54336H136.529C136.273 8.54336 136.051 8.45493 135.863 8.27807C135.681 8.09512 135.591 7.87862 135.591 7.62858C135.591 7.37855 135.681 7.1651 135.863 6.98824C136.051 6.80529 136.273 6.71381 136.529 6.71381H140.331C140.587 6.71381 140.806 6.80224 140.988 6.9791C141.175 7.15595 141.269 7.3694 141.269 7.61944L141.307 12.2939V12.3031C141.307 12.4738 141.25 12.6385 141.138 12.7971C141.025 12.9556 140.884 13.0654 140.715 13.1264C140.115 13.3581 139.451 13.5655 138.726 13.7484C138 13.9253 137.236 14.0137 136.435 14.0137C135.121 14.0137 133.948 13.7362 132.916 13.1813C131.89 12.6263 131.082 11.8609 130.494 10.8852C129.906 9.90942 129.612 8.7873 129.612 7.51881Z" fill="#1D1D1D"/>
<path d="M144.68 14.0046C144.424 14.0046 144.202 13.9161 144.014 13.7393C143.833 13.5563 143.742 13.3398 143.742 13.0898L143.732 1.64597C143.732 1.41423 143.82 1.20383 143.995 1.01477C144.17 0.825722 144.38 0.731195 144.624 0.731195C144.912 0.731195 145.147 0.819623 145.328 0.996479C145.516 1.16724 145.61 1.38373 145.61 1.64597L145.619 13.0898C145.619 13.3398 145.525 13.5563 145.337 13.7393C145.156 13.9161 144.937 14.0046 144.68 14.0046Z" fill="#1D1D1D"/>
<path d="M147.378 1.73745C147.378 1.48741 147.469 1.27396 147.65 1.0971C147.838 0.91415 148.06 0.822672 148.317 0.822672H148.326L157.703 0.767786H157.722C157.978 0.767786 158.197 0.859263 158.379 1.04222C158.566 1.21907 158.66 1.43252 158.66 1.68256C158.66 1.9326 158.566 2.14909 158.379 2.33205C158.197 2.5089 157.978 2.59733 157.722 2.59733H157.712L153.977 2.61563L153.93 13.1172V13.1264C153.93 13.3703 153.836 13.5807 153.648 13.7576C153.467 13.9344 153.248 14.0228 152.991 14.0228C152.735 14.0228 152.512 13.9344 152.325 13.7576C152.143 13.5807 152.052 13.3703 152.052 13.1264V13.1081L152.099 2.62478L148.326 2.65222H148.317C148.06 2.65222 147.838 2.56379 147.65 2.38693C147.469 2.20398 147.378 1.98748 147.378 1.73745Z" fill="#1D1D1D"/>
<path d="M165.178 1.15199C165.247 0.999529 165.363 0.87146 165.525 0.767786C165.694 0.658013 165.866 0.603127 166.042 0.603127C166.211 0.603127 166.379 0.658013 166.548 0.767786C166.724 0.87146 166.843 0.999529 166.905 1.15199L172.067 12.8245C172.124 12.9465 172.152 13.0715 172.152 13.1996C172.152 13.4496 172.058 13.6661 171.87 13.849C171.689 14.0259 171.47 14.1143 171.213 14.1143C171.038 14.1143 170.866 14.0594 170.697 13.9497C170.528 13.8399 170.409 13.7088 170.34 13.5563L168.735 9.92467L163.385 9.85148L161.743 13.5655C161.68 13.7179 161.565 13.849 161.396 13.9588C161.227 14.0747 161.055 14.1326 160.879 14.1326C160.623 14.1326 160.401 14.0442 160.213 13.8673C160.031 13.6844 159.941 13.4679 159.941 13.2178C159.941 13.0898 159.969 12.9648 160.025 12.8428L165.178 1.15199ZM166.042 3.83228L164.193 8.03108L167.919 8.07682L166.042 3.83228Z" fill="#1D1D1D"/>
<path d="M175.047 13.9863C174.79 13.9863 174.568 13.8978 174.38 13.721C174.199 13.538 174.108 13.3246 174.108 13.0806L174.08 1.47216V1.46301C174.08 1.21907 174.171 1.01173 174.352 0.840968C174.54 0.664112 174.762 0.575684 175.019 0.575684C175.275 0.575684 175.494 0.664112 175.676 0.840968C175.863 1.01173 175.957 1.21907 175.957 1.46301L175.985 12.1567L183.091 12.1384H183.1C183.356 12.1384 183.575 12.2299 183.757 12.4128C183.945 12.5897 184.039 12.8032 184.039 13.0532C184.039 13.3032 183.945 13.5197 183.757 13.7027C183.575 13.8795 183.356 13.968 183.1 13.968H183.091L175.047 13.9863Z" fill="#1D1D1D"/>
<path d="M210.355 13.5144C210.104 13.5144 209.887 13.429 209.703 13.2583C209.526 13.0816 209.437 12.8726 209.437 12.6312L209.428 1.58252C209.428 1.35878 209.513 1.15564 209.685 0.973118C209.856 0.790593 210.061 0.69933 210.3 0.69933C210.582 0.69933 210.812 0.784705 210.989 0.955454C211.173 1.12032 211.265 1.32934 211.265 1.58252L211.274 12.6312C211.274 12.8726 211.182 13.0816 210.998 13.2583C210.821 13.429 210.606 13.5144 210.355 13.5144Z" fill="#1D1D1D"/>
<path d="M213.455 1.62668C213.455 1.37938 213.546 1.17625 213.73 1.01728C213.92 0.852416 214.143 0.769985 214.401 0.769985C214.688 0.769985 214.924 0.881855 215.108 1.1056L222.042 10.1583V1.65317C222.042 1.41766 222.131 1.21747 222.309 1.05261C222.492 0.881855 222.71 0.796481 222.961 0.796481C223.212 0.796481 223.426 0.881855 223.604 1.05261C223.787 1.21747 223.879 1.41766 223.879 1.65317L223.87 12.7284C223.87 12.9756 223.775 13.1817 223.585 13.3466C223.402 13.5056 223.181 13.585 222.924 13.585C222.636 13.585 222.4 13.4673 222.217 13.2318L215.292 4.18792V12.7195C215.292 12.955 215.2 13.1582 215.016 13.3289C214.838 13.4938 214.624 13.5762 214.373 13.5762C214.122 13.5762 213.905 13.4938 213.721 13.3289C213.543 13.1582 213.455 12.955 213.455 12.7195V1.62668Z" fill="#1D1D1D"/>
<path d="M225.83 1.62668C225.83 1.37938 225.922 1.17625 226.106 1.01728C226.296 0.852416 226.519 0.769985 226.776 0.769985C227.064 0.769985 227.3 0.881855 227.484 1.1056L234.418 10.1583V1.65317C234.418 1.41766 234.507 1.21747 234.684 1.05261C234.868 0.881855 235.085 0.796481 235.336 0.796481C235.587 0.796481 235.802 0.881855 235.979 1.05261C236.163 1.21747 236.255 1.41766 236.255 1.65317L236.246 12.7284C236.246 12.9756 236.151 13.1817 235.961 13.3466C235.777 13.5056 235.557 13.585 235.3 13.585C235.012 13.585 234.776 13.4673 234.592 13.2318L227.667 4.18792V12.7195C227.667 12.955 227.575 13.1582 227.392 13.3289C227.214 13.4938 227 13.5762 226.749 13.5762C226.498 13.5762 226.28 13.4938 226.097 13.3289C225.919 13.1582 225.83 12.955 225.83 12.7195V1.62668Z" fill="#1D1D1D"/>
<path d="M244.406 0.611011C245.342 0.611011 246.203 0.787649 246.987 1.14092C247.776 1.48831 248.462 1.96818 249.044 2.58052C249.626 3.18698 250.076 3.88764 250.394 4.68251C250.712 5.47149 250.872 6.31052 250.872 7.19959C250.872 8.08867 250.712 8.92476 250.394 9.70785C250.082 10.4851 249.638 11.171 249.062 11.7657C248.487 12.3604 247.804 12.8255 247.014 13.1611C246.23 13.4967 245.364 13.6645 244.415 13.6645C243.447 13.6645 242.569 13.4967 241.779 13.1611C240.989 12.8196 240.309 12.3515 239.74 11.7568C239.177 11.1563 238.742 10.4644 238.436 9.68135C238.13 8.89237 237.976 8.04746 237.976 7.1466C237.976 6.2693 238.136 5.43911 238.454 4.65601C238.779 3.87292 239.229 3.17814 239.804 2.57169C240.386 1.95935 241.066 1.47948 241.843 1.13209C242.627 0.784705 243.481 0.611011 244.406 0.611011ZM244.442 2.40388C243.536 2.40388 242.734 2.63057 242.036 3.08394C241.344 3.53731 240.799 4.13788 240.401 4.88564C240.009 5.62752 239.813 6.44005 239.813 7.32324C239.813 7.92381 239.933 8.49788 240.172 9.04546C240.41 9.59303 240.741 10.0817 241.163 10.5116C241.586 10.9355 242.073 11.2711 242.624 11.5184C243.181 11.7598 243.775 11.8805 244.406 11.8805C245.036 11.8805 245.63 11.7539 246.187 11.5007C246.751 11.2475 247.247 10.906 247.675 10.4762C248.11 10.0464 248.45 9.56359 248.695 9.02779C248.94 8.48611 249.062 7.93264 249.062 7.3674C249.062 6.45477 248.854 5.62458 248.438 4.87681C248.027 4.12316 247.473 3.52259 246.775 3.07511C246.077 2.62762 245.3 2.40388 244.442 2.40388Z" fill="#1D1D1D"/>
<path d="M252.125 1.59135C252.125 1.38527 252.214 1.19686 252.391 1.02611C252.575 0.85536 252.777 0.769985 252.997 0.769985C253.438 0.769985 253.735 0.946623 253.888 1.2999L258.324 10.9973L262.32 1.20275C262.467 0.831808 262.767 0.646339 263.22 0.646339C263.446 0.646339 263.648 0.731713 263.826 0.902463C264.004 1.06732 264.092 1.25574 264.092 1.4677C264.092 1.63257 264.071 1.76799 264.028 1.87397L259.234 13.5674C259.172 13.7146 259.062 13.8441 258.903 13.956C258.75 14.0737 258.575 14.1326 258.379 14.1326C257.994 14.1326 257.715 13.956 257.544 13.6027L252.207 2.02411C252.152 1.91813 252.125 1.77388 252.125 1.59135Z" fill="#1D1D1D"/>
<path d="M270.48 1.1056C270.547 0.958398 270.66 0.834752 270.819 0.734657C270.985 0.628675 271.153 0.575684 271.325 0.575684C271.49 0.575684 271.655 0.628675 271.821 0.734657C271.992 0.834752 272.108 0.958398 272.17 1.1056L277.221 12.3751C277.276 12.4928 277.304 12.6135 277.304 12.7372C277.304 12.9786 277.212 13.1876 277.028 13.3642C276.851 13.535 276.636 13.6204 276.385 13.6204C276.214 13.6204 276.046 13.5674 275.88 13.4614C275.715 13.3554 275.599 13.2288 275.531 13.0816L273.961 9.57537L268.725 9.50472L267.118 13.0905C267.057 13.2377 266.944 13.3642 266.778 13.4702C266.613 13.5821 266.445 13.638 266.273 13.638C266.022 13.638 265.805 13.5527 265.621 13.3819C265.443 13.2053 265.355 12.9963 265.355 12.7548C265.355 12.6312 265.382 12.5105 265.437 12.3927L270.48 1.1056ZM271.325 3.69334L269.515 7.74717L273.162 7.79133L271.325 3.69334Z" fill="#1D1D1D"/>
<path d="M278.548 1.67084C278.548 1.42943 278.637 1.22335 278.814 1.05261C278.998 0.875968 279.215 0.787649 279.466 0.787649H279.475L288.651 0.734657H288.669C288.92 0.734657 289.135 0.822976 289.312 0.999614C289.496 1.17036 289.588 1.37644 289.588 1.61785C289.588 1.85925 289.496 2.06827 289.312 2.24491C289.135 2.41566 288.92 2.50103 288.669 2.50103H288.66L285.005 2.5187L284.959 12.6577V12.6665C284.959 12.902 284.867 13.1052 284.683 13.2759C284.506 13.4467 284.291 13.5321 284.04 13.5321C283.789 13.5321 283.572 13.4467 283.388 13.2759C283.21 13.1052 283.122 12.902 283.122 12.6665V12.6489L283.168 2.52753L279.475 2.55403H279.466C279.215 2.55403 278.998 2.46865 278.814 2.2979C278.637 2.12126 278.548 1.91224 278.548 1.67084Z" fill="#1D1D1D"/>
<path d="M292.228 13.5144C291.977 13.5144 291.759 13.429 291.576 13.2583C291.398 13.0816 291.309 12.8726 291.309 12.6312L291.3 1.58252C291.3 1.35878 291.386 1.15564 291.557 0.973118C291.729 0.790593 291.934 0.69933 292.173 0.69933C292.454 0.69933 292.684 0.784705 292.861 0.955454C293.045 1.12032 293.137 1.32934 293.137 1.58252L293.146 12.6312C293.146 12.8726 293.054 13.0816 292.871 13.2583C292.693 13.429 292.479 13.5144 292.228 13.5144Z" fill="#1D1D1D"/>
<path d="M301.527 0.611011C302.463 0.611011 303.324 0.787649 304.107 1.14092C304.897 1.48831 305.583 1.96818 306.165 2.58052C306.746 3.18698 307.197 3.88764 307.515 4.68251C307.833 5.47149 307.992 6.31052 307.992 7.19959C307.992 8.08867 307.833 8.92476 307.515 9.70785C307.203 10.4851 306.759 11.171 306.183 11.7657C305.608 12.3604 304.925 12.8255 304.135 13.1611C303.351 13.4967 302.485 13.6645 301.536 13.6645C300.568 13.6645 299.69 13.4967 298.9 13.1611C298.11 12.8196 297.43 12.3515 296.861 11.7568C296.297 11.1563 295.863 10.4644 295.557 9.68135C295.25 8.89237 295.097 8.04746 295.097 7.1466C295.097 6.2693 295.257 5.43911 295.575 4.65601C295.899 3.87292 296.349 3.17814 296.925 2.57169C297.507 1.95935 298.186 1.47948 298.964 1.13209C299.748 0.784705 300.602 0.611011 301.527 0.611011ZM301.563 2.40388C300.657 2.40388 299.855 2.63057 299.157 3.08394C298.465 3.53731 297.92 4.13788 297.522 4.88564C297.13 5.62752 296.934 6.44005 296.934 7.32324C296.934 7.92381 297.054 8.49788 297.292 9.04546C297.531 9.59303 297.862 10.0817 298.284 10.5116C298.707 10.9355 299.194 11.2711 299.745 11.5184C300.302 11.7598 300.896 11.8805 301.527 11.8805C302.157 11.8805 302.751 11.7539 303.308 11.5007C303.872 11.2475 304.368 10.906 304.796 10.4762C305.231 10.0464 305.571 9.56359 305.816 9.02779C306.061 8.48611 306.183 7.93264 306.183 7.3674C306.183 6.45477 305.975 5.62458 305.559 4.87681C305.148 4.12316 304.594 3.52259 303.896 3.07511C303.198 2.62762 302.421 2.40388 301.563 2.40388Z" fill="#1D1D1D"/>
<path d="M309.705 1.62668C309.705 1.37938 309.797 1.17625 309.98 1.01728C310.17 0.852416 310.394 0.769985 310.651 0.769985C310.939 0.769985 311.174 0.881855 311.358 1.1056L318.292 10.1583V1.65317C318.292 1.41766 318.381 1.21747 318.559 1.05261C318.743 0.881855 318.96 0.796481 319.211 0.796481C319.462 0.796481 319.676 0.881855 319.854 1.05261C320.038 1.21747 320.129 1.41766 320.129 1.65317L320.12 12.7284C320.12 12.9756 320.025 13.1817 319.835 13.3466C319.652 13.5056 319.431 13.585 319.174 13.585C318.886 13.585 318.651 13.4673 318.467 13.2318L311.542 4.18792V12.7195C311.542 12.955 311.45 13.1582 311.266 13.3289C311.089 13.4938 310.874 13.5762 310.623 13.5762C310.372 13.5762 310.155 13.4938 309.971 13.3289C309.794 13.1582 309.705 12.955 309.705 12.7195V1.62668Z" fill="#1D1D1D"/>
</svg>
