<svg width="226" height="197" viewBox="0 0 226 197" fill="none" xmlns="http://www.w3.org/2000/svg">
<path d="M221.461 168.345H56.3809C54.0125 168.345 52.0903 166.424 52.0903 164.057C52.0903 161.69 54.0125 159.769 56.3809 159.769H214.03L129.177 12.8733L126.184 17.8169C125.002 19.8695 122.379 20.5757 120.326 19.395C118.272 18.2143 117.565 15.5927 118.747 13.5401L125.453 2.14984C126.217 0.820484 127.635 0.00285883 129.169 0C130.702 0 132.118 0.817626 132.884 2.14412L225.177 161.913C225.943 163.239 225.943 164.874 225.177 166.201C224.41 167.527 222.994 168.345 221.461 168.345Z" fill="#1D1D1D"/>
<path d="M17.5283 168.345H4.29054C2.75739 168.345 1.34151 167.527 0.574933 166.201C-0.191644 164.874 -0.191644 163.239 0.574933 161.913L92.8674 2.14412C93.634 0.817626 95.0499 0 96.583 0C98.1162 0 99.532 0.817626 100.299 2.14412L182.611 144.637C184.362 147.879 183.491 149.616 181.44 150.799C179.846 151.719 177.19 151.861 174.799 148.144L96.583 12.8647L11.7218 159.769H17.5283C19.8967 159.769 21.8189 161.69 21.8189 164.057C21.8189 166.424 19.8967 168.345 17.5283 168.345Z" fill="#1D1D1D"/>
<path d="M205.168 196.716H20.586C19.0528 196.716 17.6369 195.898 16.8703 194.572C16.1038 193.245 16.1038 191.61 16.8703 190.284L99.3607 47.4826C100.545 45.4328 103.171 44.7295 105.222 45.9131C107.272 47.0967 107.976 49.7211 106.792 51.7708L28.0172 188.14H197.748L195.255 183.218C194.074 181.166 194.781 178.544 196.834 177.363C198.888 176.183 201.511 176.889 202.692 178.941L208.889 190.292C209.653 191.619 209.653 193.254 208.887 194.578C208.12 195.904 206.704 196.719 205.171 196.719L205.168 196.716Z" fill="#1D1D1D"/>
</svg>
