<svg width="321" height="14" viewBox="0 0 321 14" fill="none" xmlns="http://www.w3.org/2000/svg">
<path d="M11.8218 8.60011C12.042 8.60011 12.2409 8.68549 12.4183 8.85624C12.6018 9.0211 12.6936 9.20657 12.6936 9.41264C12.6936 9.57751 12.663 9.71882 12.6018 9.83657C12.2959 10.4842 11.8615 11.0878 11.2987 11.6471C10.7419 12.2006 10.0781 12.6451 9.3072 12.9807C8.53632 13.3163 7.6706 13.4841 6.71005 13.4841C5.76174 13.4841 4.9052 13.3104 4.14043 12.9631C3.37566 12.6157 2.72102 12.1417 2.1765 11.5411C1.63811 10.9347 1.22207 10.2399 0.9284 9.4568C0.640847 8.66782 0.49707 7.83468 0.49707 6.95738C0.49707 6.09186 0.643906 5.26755 0.937577 4.48445C1.23125 3.70136 1.65034 3.00953 2.19486 2.40896C2.73937 1.80251 3.39095 1.32559 4.14961 0.978198C4.90826 0.630811 5.75256 0.457117 6.68252 0.457117C7.62471 0.457117 8.4782 0.619035 9.24296 0.94287C10.0139 1.26082 10.6807 1.68769 11.2436 2.22349C11.8126 2.75341 12.2562 3.33631 12.5743 3.97221C12.6416 4.09585 12.6752 4.22539 12.6752 4.36081C12.6752 4.57866 12.5927 4.77885 12.4275 4.96138C12.2684 5.13801 12.0818 5.22633 11.8676 5.22633C11.6596 5.22633 11.47 5.18512 11.2987 5.10269C11.1335 5.01437 11.0081 4.88483 10.9224 4.71408C10.5798 4.03108 10.0414 3.44524 9.3072 2.95654C8.57914 2.46784 7.70425 2.22349 6.68252 2.22349C5.79539 2.22349 5.0245 2.44135 4.36986 2.87705C3.72133 3.31276 3.21965 3.89272 2.86479 4.61693C2.50994 5.33526 2.33251 6.1213 2.33251 6.97505C2.33251 7.83468 2.50688 8.62366 2.85562 9.34199C3.21047 10.0603 3.71216 10.6344 4.36068 11.0642C5.01532 11.494 5.79233 11.7089 6.6917 11.7089C7.36469 11.7089 7.97957 11.5912 8.53632 11.3557C9.09919 11.1143 9.58558 10.7963 9.9955 10.4018C10.4054 10.0073 10.7174 9.58339 10.9316 9.13002C11.0968 8.77675 11.3935 8.60011 11.8218 8.60011Z" fill="white"/>
<path d="M23.8759 12.6539C23.8759 12.8836 23.7872 13.0838 23.6097 13.2545C23.4384 13.4194 23.2518 13.5018 23.0499 13.5018C22.8786 13.5018 22.7287 13.4429 22.6002 13.3252C22.4717 13.2133 22.383 13.1279 22.3341 13.069C21.7773 12.6922 21.294 12.2653 20.8841 11.7884C20.4803 11.3056 20.1346 10.7816 19.8471 10.2163C19.5962 9.70998 19.3393 9.31549 19.0762 9.03287C18.8192 8.75025 18.5072 8.55006 18.1401 8.43231C17.773 8.31455 17.2958 8.25272 16.7085 8.24684L15.8733 8.238L15.8825 12.5126V12.5303C15.8825 12.7658 15.7907 12.9719 15.6072 13.1485C15.4298 13.3252 15.2156 13.4135 14.9648 13.4135C14.7139 13.4135 14.4967 13.3193 14.3132 13.1309C14.1358 12.9425 14.0471 12.7187 14.0471 12.4596L14.0195 1.49928C14.0195 1.25199 14.1082 1.04591 14.2857 0.881047C14.4692 0.710297 14.6833 0.621979 14.9281 0.616091L17.3692 0.607259H17.5803C18.6326 0.607259 19.5717 0.757401 20.3977 1.05768C21.2236 1.35208 21.8752 1.79662 22.3524 2.3913C22.8297 2.98009 23.0683 3.71314 23.0683 4.59044C23.0683 5.15568 22.9459 5.6591 22.7012 6.10069C22.4626 6.54228 22.1475 6.91617 21.7559 7.22234C21.3644 7.52851 20.9422 7.76697 20.4895 7.93772C20.6975 8.1909 20.9055 8.50296 21.1135 8.8739C21.4684 9.52746 21.814 10.1074 22.1505 10.6138C22.487 11.1143 22.9306 11.5558 23.4812 11.9386C23.5914 12.0092 23.6831 12.1093 23.7566 12.2388C23.8361 12.3625 23.8759 12.5009 23.8759 12.6539ZM17.6262 2.37364H15.855L15.8733 6.59527L17.6445 6.57761C18.7703 6.56583 19.6513 6.40097 20.2876 6.08303C20.93 5.76508 21.2512 5.25577 21.2512 4.55511C21.2512 3.83678 20.9116 3.29509 20.2325 2.93004C19.5534 2.5591 18.6846 2.37364 17.6262 2.37364Z" fill="white"/>
<path d="M25.2569 1.49045C25.2569 1.25493 25.3456 1.05474 25.523 0.889879C25.7065 0.719129 25.9237 0.633755 26.1746 0.633755L34.0395 0.642586H34.0486C34.2995 0.642586 34.5136 0.730905 34.691 0.907543C34.8746 1.07829 34.9664 1.28437 34.9664 1.52577C34.9664 1.76718 34.8746 1.9762 34.691 2.15284C34.5136 2.32359 34.2995 2.40896 34.0486 2.40896H34.0395L27.0923 2.40013L27.1015 6.0212L33.2869 6.06536C33.55 6.06536 33.7672 6.15368 33.9385 6.33032C34.1159 6.50696 34.2046 6.73364 34.2046 7.01037C34.2046 7.24589 34.1098 7.44608 33.9202 7.61094C33.7305 7.76991 33.5194 7.8494 33.2869 7.8494H33.2777L27.1107 7.80524L27.1198 11.5411L34.0395 11.5323H34.0486C34.2995 11.5323 34.5136 11.6206 34.691 11.7973C34.8746 11.968 34.9664 12.1741 34.9664 12.4155C34.9664 12.6569 34.8746 12.8659 34.691 13.0425C34.5136 13.2133 34.2995 13.2987 34.0486 13.2987H34.0395L26.2021 13.3075C25.9513 13.3075 25.7341 13.2221 25.5505 13.0514C25.3731 12.8747 25.2844 12.6687 25.2844 12.4331L25.2569 1.49045Z" fill="white"/>
<path d="M41.2021 0.969366C41.2694 0.822168 41.3826 0.698522 41.5417 0.598427C41.7068 0.492444 41.8751 0.439453 42.0464 0.439453C42.2116 0.439453 42.3768 0.492444 42.542 0.598427C42.7133 0.698522 42.8295 0.822168 42.8907 0.969366L47.9382 12.2388C47.9932 12.3566 48.0208 12.4773 48.0208 12.601C48.0208 12.8424 47.929 13.0514 47.7455 13.228C47.568 13.3988 47.3539 13.4841 47.103 13.4841C46.9317 13.4841 46.7635 13.4312 46.5983 13.3252C46.4331 13.2192 46.3169 13.0926 46.2496 12.9454L44.6803 9.43914L39.4492 9.36849L37.8432 12.9542C37.782 13.1014 37.6689 13.228 37.5037 13.334C37.3385 13.4459 37.1702 13.5018 36.9989 13.5018C36.7481 13.5018 36.5309 13.4164 36.3473 13.2457C36.1699 13.069 36.0812 12.86 36.0812 12.6186C36.0812 12.495 36.1087 12.3743 36.1638 12.2565L41.2021 0.969366ZM42.0464 3.55711L40.2385 7.61094L43.8818 7.6551L42.0464 3.55711Z" fill="white"/>
<path d="M48.8878 1.53461C48.8878 1.2932 48.9765 1.08712 49.154 0.916375C49.3375 0.739737 49.5547 0.651418 49.8056 0.651418H49.8147L58.9828 0.598427H59.0011C59.252 0.598427 59.4661 0.686746 59.6435 0.863383C59.8271 1.03413 59.9189 1.24021 59.9189 1.48162C59.9189 1.72302 59.8271 1.93204 59.6435 2.10868C59.4661 2.27943 59.252 2.3648 59.0011 2.3648H58.992L55.3394 2.38247L55.2935 12.5215V12.5303C55.2935 12.7658 55.2018 12.9689 55.0182 13.1397C54.8408 13.3104 54.6267 13.3958 54.3758 13.3958C54.125 13.3958 53.9078 13.3104 53.7242 13.1397C53.5468 12.9689 53.4581 12.7658 53.4581 12.5303V12.5126L53.504 2.3913L49.8147 2.41779H49.8056C49.5547 2.41779 49.3375 2.33242 49.154 2.16167C48.9765 1.98503 48.8878 1.77601 48.8878 1.53461Z" fill="white"/>
<path d="M62.1809 13.3782C61.93 13.3782 61.7128 13.2928 61.5293 13.122C61.3518 12.9454 61.2631 12.7364 61.2631 12.495L61.254 1.44629C61.254 1.22255 61.3396 1.01941 61.5109 0.836888C61.6822 0.654362 61.8872 0.563099 62.1258 0.563099C62.4072 0.563099 62.6367 0.648474 62.8141 0.819224C62.9976 0.984086 63.0894 1.19311 63.0894 1.44629L63.0986 12.495C63.0986 12.7364 63.0068 12.9454 62.8233 13.122C62.6458 13.2928 62.4317 13.3782 62.1809 13.3782Z" fill="white"/>
<path d="M64.4429 1.45512C64.4429 1.24904 64.5316 1.06063 64.709 0.889879C64.8925 0.719129 65.0944 0.633755 65.3147 0.633755C65.7552 0.633755 66.0519 0.810392 66.2049 1.16367L70.6375 10.8611L74.6296 1.06652C74.7764 0.695578 75.0762 0.510108 75.5289 0.510108C75.7553 0.510108 75.9572 0.595483 76.1346 0.766233C76.3121 0.931095 76.4008 1.11951 76.4008 1.33147C76.4008 1.49633 76.3794 1.63176 76.3365 1.73774L71.546 13.4312C71.4848 13.5783 71.3747 13.7079 71.2157 13.8198C71.0627 13.9375 70.8883 13.9964 70.6925 13.9964C70.3071 13.9964 70.0287 13.8198 69.8574 13.4665L64.5255 1.88788C64.4704 1.7819 64.4429 1.63765 64.4429 1.45512Z" fill="white"/>
<path d="M77.5156 1.49045C77.5156 1.25493 77.6043 1.05474 77.7818 0.889879C77.9653 0.719129 78.1825 0.633755 78.4334 0.633755L86.2982 0.642586H86.3074C86.5583 0.642586 86.7724 0.730905 86.9498 0.907543C87.1334 1.07829 87.2251 1.28437 87.2251 1.52577C87.2251 1.76718 87.1334 1.9762 86.9498 2.15284C86.7724 2.32359 86.5583 2.40896 86.3074 2.40896H86.2982L79.3511 2.40013L79.3603 6.0212L85.5457 6.06536C85.8088 6.06536 86.026 6.15368 86.1973 6.33032C86.3747 6.50696 86.4634 6.73364 86.4634 7.01037C86.4634 7.24589 86.3686 7.44608 86.1789 7.61094C85.9893 7.76991 85.7782 7.8494 85.5457 7.8494H85.5365L79.3694 7.80524L79.3786 11.5411L86.2982 11.5323H86.3074C86.5583 11.5323 86.7724 11.6206 86.9498 11.7973C87.1334 11.968 87.2251 12.1741 87.2251 12.4155C87.2251 12.6569 87.1334 12.8659 86.9498 13.0425C86.7724 13.2133 86.5583 13.2987 86.3074 13.2987H86.2982L78.4609 13.3075C78.21 13.3075 77.9928 13.2221 77.8093 13.0514C77.6319 12.8747 77.5432 12.6687 77.5432 12.4331L77.5156 1.49045Z" fill="white"/>
<path d="M97.8018 7.221C97.8018 6.11154 98.766 5.18457 99.92 5.18457C101.074 5.18457 102.038 6.11154 102.038 7.221C102.038 8.33046 101.074 9.25743 99.92 9.25743C98.766 9.25743 97.8018 8.33046 97.8018 7.221Z" fill="white"/>
<path d="M195.112 7.221C195.112 6.11154 196.077 5.18457 197.231 5.18457C198.385 5.18457 199.349 6.11154 199.349 7.221C199.349 8.33046 198.385 9.25743 197.231 9.25743C196.077 9.25743 195.112 8.33046 195.112 7.221Z" fill="white"/>
<path d="M116.904 0.631555H117.045C118.146 0.631555 119.113 0.820609 119.945 1.19871C120.777 1.57072 121.472 2.0769 122.029 2.71724C122.592 3.35148 123.014 4.065 123.296 4.85781C123.584 5.64451 123.728 6.44951 123.728 7.27281C123.728 8.5291 123.437 9.64817 122.855 10.63C122.279 11.6119 121.425 12.3833 120.292 12.9444C119.166 13.5055 117.777 13.786 116.125 13.786H115.684L113.544 13.7677C113.294 13.7616 113.075 13.6671 112.887 13.4841C112.705 13.3012 112.615 13.0816 112.615 12.8255L112.68 1.60122C112.68 1.35728 112.771 1.14688 112.953 0.970022C113.134 0.787067 113.35 0.69254 113.6 0.686442L116.904 0.631555ZM122.057 7.21792C122.057 6.0836 121.81 5.16883 121.315 4.4736C120.821 3.77838 120.127 3.2722 119.232 2.95508C118.337 2.63186 117.286 2.47025 116.078 2.47025C115.822 2.47025 115.565 2.4733 115.309 2.4794C115.058 2.4855 114.805 2.49464 114.548 2.50684L114.492 11.9199L115.703 11.9382C116.96 11.9382 118.065 11.7918 119.016 11.4991C119.973 11.2002 120.718 10.7063 121.25 10.0171C121.788 9.328 122.057 8.39493 122.057 7.21792Z" fill="white"/>
<path d="M127.129 13.8683C126.873 13.8683 126.651 13.7799 126.463 13.603C126.282 13.4201 126.191 13.2036 126.191 12.9536L126.182 1.50974C126.182 1.278 126.269 1.0676 126.444 0.878544C126.62 0.689491 126.829 0.594965 127.073 0.594965C127.361 0.594965 127.596 0.683393 127.777 0.860249C127.965 1.03101 128.059 1.2475 128.059 1.50974L128.068 12.9536C128.068 13.2036 127.974 13.4201 127.787 13.603C127.605 13.7799 127.386 13.8683 127.129 13.8683Z" fill="white"/>
<path d="M130.109 7.38258C130.109 6.4861 130.272 5.62317 130.597 4.79377C130.929 3.96438 131.395 3.22646 131.996 2.58002C132.602 1.92748 133.322 1.41216 134.154 1.03406C134.993 0.655949 135.919 0.466896 136.933 0.466896C137.865 0.466896 138.71 0.591915 139.467 0.841953C140.23 1.09199 140.943 1.4457 141.607 1.90309C141.876 2.07995 142.01 2.32389 142.01 2.63491C142.01 2.87885 141.916 3.0923 141.729 3.27525C141.547 3.45211 141.328 3.54053 141.072 3.54053C140.871 3.54053 140.687 3.4826 140.518 3.36673C140.03 3.04351 139.479 2.78737 138.866 2.59832C138.253 2.40317 137.624 2.30559 136.979 2.30559C136.247 2.30559 135.575 2.44281 134.961 2.71724C134.355 2.98557 133.826 3.35758 133.375 3.83326C132.931 4.30285 132.584 4.83951 132.333 5.44326C132.089 6.04701 131.967 6.68126 131.967 7.34599C131.967 8.25467 132.171 9.06271 132.577 9.77014C132.99 10.4776 133.563 11.0325 134.295 11.435C135.033 11.8375 135.891 12.0388 136.867 12.0388C137.405 12.0388 137.937 11.9869 138.462 11.8833C138.994 11.7796 139.479 11.6607 139.917 11.5265L139.889 8.40713H137.026C136.77 8.40713 136.548 8.3187 136.36 8.14184C136.179 7.95889 136.088 7.74239 136.088 7.49235C136.088 7.24232 136.179 7.02887 136.36 6.85201C136.548 6.66906 136.77 6.57758 137.026 6.57758H140.828C141.084 6.57758 141.303 6.66601 141.485 6.84287C141.672 7.01972 141.766 7.23317 141.766 7.48321L141.804 12.1577V12.1668C141.804 12.3376 141.747 12.5023 141.635 12.6608C141.522 12.8194 141.381 12.9292 141.212 12.9901C140.612 13.2219 139.949 13.4292 139.223 13.6122C138.497 13.789 137.733 13.8775 136.933 13.8775C135.618 13.8775 134.445 13.6 133.413 13.045C132.387 12.4901 131.579 11.7247 130.991 10.7489C130.403 9.77319 130.109 8.65107 130.109 7.38258Z" fill="white"/>
<path d="M145.177 13.8683C144.921 13.8683 144.699 13.7799 144.511 13.603C144.33 13.4201 144.239 13.2036 144.239 12.9536L144.229 1.50974C144.229 1.278 144.317 1.0676 144.492 0.878544C144.667 0.689491 144.877 0.594965 145.121 0.594965C145.409 0.594965 145.644 0.683393 145.825 0.860249C146.013 1.03101 146.107 1.2475 146.107 1.50974L146.116 12.9536C146.116 13.2036 146.022 13.4201 145.834 13.603C145.653 13.7799 145.434 13.8683 145.177 13.8683Z" fill="white"/>
<path d="M147.875 1.60122C147.875 1.35118 147.966 1.13773 148.148 0.960874C148.335 0.777919 148.557 0.686442 148.814 0.686442H148.823L158.2 0.631555H158.219C158.475 0.631555 158.694 0.723033 158.876 0.905987C159.063 1.08284 159.157 1.29629 159.157 1.54633C159.157 1.79637 159.063 2.01286 158.876 2.19582C158.694 2.37267 158.475 2.4611 158.219 2.4611H158.209L154.474 2.4794L154.427 12.981V12.9901C154.427 13.2341 154.333 13.4445 154.145 13.6213C153.964 13.7982 153.745 13.8866 153.488 13.8866C153.232 13.8866 153.009 13.7982 152.822 13.6213C152.64 13.4445 152.55 13.2341 152.55 12.9901V12.9718L152.596 2.48855L148.823 2.51599H148.814C148.557 2.51599 148.335 2.42756 148.148 2.2507C147.966 2.06775 147.875 1.85125 147.875 1.60122Z" fill="white"/>
<path d="M165.675 1.01576C165.744 0.863298 165.86 0.73523 166.022 0.631555C166.191 0.521783 166.363 0.466896 166.539 0.466896C166.708 0.466896 166.877 0.521783 167.046 0.631555C167.221 0.73523 167.34 0.863298 167.402 1.01576L172.564 12.6883C172.621 12.8102 172.649 12.9353 172.649 13.0633C172.649 13.3134 172.555 13.5299 172.367 13.7128C172.186 13.8897 171.967 13.9781 171.71 13.9781C171.535 13.9781 171.363 13.9232 171.194 13.8134C171.025 13.7037 170.906 13.5725 170.837 13.4201L169.232 9.78843L163.882 9.71525L162.24 13.4292C162.177 13.5817 162.062 13.7128 161.893 13.8226C161.724 13.9385 161.552 13.9964 161.376 13.9964C161.12 13.9964 160.898 13.908 160.71 13.7311C160.529 13.5482 160.438 13.3317 160.438 13.0816C160.438 12.9536 160.466 12.8285 160.522 12.7066L165.675 1.01576ZM166.539 3.69605L164.69 7.89485L168.416 7.94059L166.539 3.69605Z" fill="white"/>
<path d="M175.544 13.85C175.287 13.85 175.065 13.7616 174.877 13.5847C174.696 13.4018 174.605 13.1883 174.605 12.9444L174.577 1.33593V1.32678C174.577 1.08284 174.668 0.875495 174.849 0.704737C175.037 0.527881 175.259 0.439453 175.516 0.439453C175.772 0.439453 175.991 0.527881 176.173 0.704737C176.36 0.875495 176.454 1.08284 176.454 1.32678L176.482 12.0205L183.588 12.0022H183.597C183.854 12.0022 184.073 12.0937 184.254 12.2766C184.442 12.4535 184.536 12.6669 184.536 12.917C184.536 13.167 184.442 13.3835 184.254 13.5664C184.073 13.7433 183.854 13.8317 183.597 13.8317H183.588L175.544 13.85Z" fill="white"/>
<path d="M210.852 13.3782C210.601 13.3782 210.384 13.2928 210.2 13.122C210.023 12.9454 209.934 12.7364 209.934 12.495L209.925 1.44629C209.925 1.22255 210.011 1.01941 210.182 0.836888C210.353 0.654362 210.559 0.563099 210.797 0.563099C211.079 0.563099 211.309 0.648474 211.486 0.819224C211.67 0.984086 211.762 1.19311 211.762 1.44629L211.771 12.495C211.771 12.7364 211.679 12.9454 211.495 13.122C211.318 13.2928 211.103 13.3782 210.852 13.3782Z" fill="white"/>
<path d="M213.952 1.49045C213.952 1.24315 214.044 1.04002 214.227 0.881047C214.417 0.716185 214.641 0.633755 214.898 0.633755C215.186 0.633755 215.421 0.745625 215.605 0.969366L222.539 10.022V1.51694C222.539 1.28143 222.628 1.08124 222.806 0.916375C222.989 0.745625 223.207 0.66025 223.458 0.66025C223.709 0.66025 223.923 0.745625 224.101 0.916375C224.284 1.08124 224.376 1.28143 224.376 1.51694L224.367 12.5921C224.367 12.8394 224.272 13.0455 224.082 13.2104C223.899 13.3693 223.678 13.4488 223.421 13.4488C223.133 13.4488 222.898 13.3311 222.714 13.0955L215.789 4.05169V12.5833C215.789 12.8188 215.697 13.0219 215.513 13.1927C215.336 13.3576 215.121 13.44 214.87 13.44C214.619 13.44 214.402 13.3576 214.218 13.1927C214.04 13.0219 213.952 12.8188 213.952 12.5833V1.49045Z" fill="white"/>
<path d="M226.327 1.49045C226.327 1.24315 226.419 1.04002 226.603 0.881047C226.793 0.716185 227.016 0.633755 227.273 0.633755C227.561 0.633755 227.797 0.745625 227.981 0.969366L234.915 10.022V1.51694C234.915 1.28143 235.004 1.08124 235.181 0.916375C235.365 0.745625 235.582 0.66025 235.833 0.66025C236.085 0.66025 236.299 0.745625 236.476 0.916375C236.66 1.08124 236.752 1.28143 236.752 1.51694L236.743 12.5921C236.743 12.8394 236.648 13.0455 236.458 13.2104C236.274 13.3693 236.054 13.4488 235.797 13.4488C235.509 13.4488 235.273 13.3311 235.09 13.0955L228.164 4.05169V12.5833C228.164 12.8188 228.072 13.0219 227.889 13.1927C227.711 13.3576 227.497 13.44 227.246 13.44C226.995 13.44 226.777 13.3576 226.594 13.1927C226.416 13.0219 226.327 12.8188 226.327 12.5833V1.49045Z" fill="white"/>
<path d="M244.903 0.474781C245.84 0.474781 246.7 0.651418 247.484 1.00469C248.273 1.35208 248.959 1.83195 249.541 2.44429C250.123 3.05075 250.573 3.75141 250.891 4.54628C251.209 5.33526 251.369 6.17429 251.369 7.06336C251.369 7.95244 251.209 8.78853 250.891 9.57162C250.579 10.3488 250.135 11.0348 249.559 11.6294C248.984 12.2241 248.301 12.6893 247.511 13.0249C246.727 13.3605 245.861 13.5283 244.912 13.5283C243.944 13.5283 243.066 13.3605 242.276 13.0249C241.486 12.6834 240.806 12.2153 240.237 11.6206C239.674 11.02 239.239 10.3282 238.933 9.54512C238.627 8.75614 238.473 7.91122 238.473 7.01037C238.473 6.13307 238.633 5.30288 238.951 4.51978C239.276 3.73669 239.726 3.04191 240.301 2.43546C240.883 1.82311 241.563 1.34325 242.34 0.995862C243.124 0.648474 243.978 0.474781 244.903 0.474781ZM244.939 2.26765C244.033 2.26765 243.231 2.49434 242.533 2.94771C241.841 3.40108 241.296 4.00165 240.898 4.74941C240.506 5.49129 240.31 6.30382 240.31 7.18701C240.31 7.78758 240.43 8.36165 240.669 8.90923C240.907 9.4568 241.238 9.9455 241.661 10.3753C242.083 10.7993 242.57 11.1349 243.121 11.3822C243.678 11.6236 244.272 11.7443 244.903 11.7443C245.533 11.7443 246.127 11.6177 246.685 11.3645C247.248 11.1113 247.744 10.7698 248.172 10.34C248.607 9.91017 248.947 9.42736 249.192 8.89156C249.437 8.34987 249.559 7.79641 249.559 7.23117C249.559 6.31854 249.351 5.48835 248.935 4.74058C248.525 3.98693 247.97 3.38636 247.272 2.93888C246.574 2.49139 245.797 2.26765 244.939 2.26765Z" fill="white"/>
<path d="M252.622 1.45512C252.622 1.24904 252.711 1.06063 252.888 0.889879C253.072 0.719129 253.274 0.633755 253.494 0.633755C253.935 0.633755 254.232 0.810392 254.385 1.16367L258.821 10.8611L262.817 1.06652C262.964 0.695578 263.264 0.510108 263.717 0.510108C263.943 0.510108 264.145 0.595483 264.323 0.766233C264.501 0.931095 264.589 1.11951 264.589 1.33147C264.589 1.49633 264.568 1.63176 264.525 1.73774L259.731 13.4312C259.669 13.5783 259.559 13.7079 259.4 13.8198C259.247 13.9375 259.072 13.9964 258.877 13.9964C258.491 13.9964 258.212 13.8198 258.041 13.4665L252.704 1.88788C252.649 1.7819 252.622 1.63765 252.622 1.45512Z" fill="white"/>
<path d="M270.977 0.969366C271.044 0.822168 271.157 0.698522 271.317 0.598427C271.482 0.492444 271.65 0.439453 271.822 0.439453C271.987 0.439453 272.152 0.492444 272.318 0.598427C272.489 0.698522 272.605 0.822168 272.667 0.969366L277.718 12.2388C277.773 12.3566 277.801 12.4773 277.801 12.601C277.801 12.8424 277.709 13.0514 277.525 13.228C277.348 13.3988 277.133 13.4841 276.882 13.4841C276.711 13.4841 276.543 13.4312 276.377 13.3252C276.212 13.2192 276.096 13.0926 276.028 12.9454L274.458 9.43914L269.222 9.36849L267.615 12.9542C267.554 13.1014 267.441 13.228 267.275 13.334C267.11 13.4459 266.942 13.5018 266.77 13.5018C266.519 13.5018 266.302 13.4164 266.118 13.2457C265.94 13.069 265.852 12.86 265.852 12.6186C265.852 12.495 265.879 12.3743 265.934 12.2565L270.977 0.969366ZM271.822 3.55711L270.012 7.61094L273.659 7.6551L271.822 3.55711Z" fill="white"/>
<path d="M279.045 1.53461C279.045 1.2932 279.134 1.08712 279.311 0.916375C279.495 0.739737 279.712 0.651418 279.963 0.651418H279.972L289.148 0.598427H289.166C289.417 0.598427 289.632 0.686746 289.809 0.863383C289.993 1.03413 290.085 1.24021 290.085 1.48162C290.085 1.72302 289.993 1.93204 289.809 2.10868C289.632 2.27943 289.417 2.3648 289.166 2.3648H289.157L285.502 2.38247L285.456 12.5215V12.5303C285.456 12.7658 285.364 12.9689 285.18 13.1397C285.003 13.3104 284.788 13.3958 284.537 13.3958C284.286 13.3958 284.069 13.3104 283.885 13.1397C283.708 12.9689 283.619 12.7658 283.619 12.5303V12.5126L283.665 2.3913L279.972 2.41779H279.963C279.712 2.41779 279.495 2.33242 279.311 2.16167C279.134 1.98503 279.045 1.77601 279.045 1.53461Z" fill="white"/>
<path d="M292.725 13.3782C292.474 13.3782 292.256 13.2928 292.073 13.122C291.895 12.9454 291.806 12.7364 291.806 12.495L291.797 1.44629C291.797 1.22255 291.883 1.01941 292.054 0.836888C292.226 0.654362 292.431 0.563099 292.67 0.563099C292.951 0.563099 293.181 0.648474 293.358 0.819224C293.542 0.984086 293.634 1.19311 293.634 1.44629L293.643 12.495C293.643 12.7364 293.551 12.9454 293.368 13.122C293.19 13.2928 292.976 13.3782 292.725 13.3782Z" fill="white"/>
<path d="M302.024 0.474781C302.96 0.474781 303.821 0.651418 304.604 1.00469C305.394 1.35208 306.08 1.83195 306.662 2.44429C307.244 3.05075 307.694 3.75141 308.012 4.54628C308.33 5.33526 308.49 6.17429 308.49 7.06336C308.49 7.95244 308.33 8.78853 308.012 9.57162C307.7 10.3488 307.256 11.0348 306.68 11.6294C306.105 12.2241 305.422 12.6893 304.632 13.0249C303.848 13.3605 302.982 13.5283 302.033 13.5283C301.065 13.5283 300.187 13.3605 299.397 13.0249C298.607 12.6834 297.927 12.2153 297.358 11.6206C296.795 11.02 296.36 10.3282 296.054 9.54512C295.747 8.75614 295.594 7.91122 295.594 7.01037C295.594 6.13307 295.754 5.30288 296.072 4.51978C296.397 3.73669 296.847 3.04191 297.422 2.43546C298.004 1.82311 298.683 1.34325 299.461 0.995862C300.245 0.648474 301.099 0.474781 302.024 0.474781ZM302.06 2.26765C301.154 2.26765 300.352 2.49434 299.654 2.94771C298.962 3.40108 298.417 4.00165 298.019 4.74941C297.627 5.49129 297.431 6.30382 297.431 7.18701C297.431 7.78758 297.551 8.36165 297.79 8.90923C298.028 9.4568 298.359 9.9455 298.781 10.3753C299.204 10.7993 299.691 11.1349 300.242 11.3822C300.799 11.6236 301.393 11.7443 302.024 11.7443C302.654 11.7443 303.248 11.6177 303.805 11.3645C304.369 11.1113 304.865 10.7698 305.293 10.34C305.728 9.91017 306.068 9.42736 306.313 8.89156C306.558 8.34987 306.68 7.79641 306.68 7.23117C306.68 6.31854 306.472 5.48835 306.056 4.74058C305.645 3.98693 305.091 3.38636 304.393 2.93888C303.695 2.49139 302.918 2.26765 302.06 2.26765Z" fill="white"/>
<path d="M310.202 1.49045C310.202 1.24315 310.294 1.04002 310.477 0.881047C310.667 0.716185 310.891 0.633755 311.148 0.633755C311.436 0.633755 311.671 0.745625 311.855 0.969366L318.79 10.022V1.51694C318.79 1.28143 318.878 1.08124 319.056 0.916375C319.24 0.745625 319.457 0.66025 319.708 0.66025C319.959 0.66025 320.173 0.745625 320.351 0.916375C320.535 1.08124 320.626 1.28143 320.626 1.51694L320.617 12.5921C320.617 12.8394 320.522 13.0455 320.333 13.2104C320.149 13.3693 319.928 13.4488 319.671 13.4488C319.383 13.4488 319.148 13.3311 318.964 13.0955L312.039 4.05169V12.5833C312.039 12.8188 311.947 13.0219 311.763 13.1927C311.586 13.3576 311.371 13.44 311.12 13.44C310.869 13.44 310.652 13.3576 310.468 13.1927C310.291 13.0219 310.202 12.8188 310.202 12.5833V1.49045Z" fill="white"/>
</svg>
