<svg width="321" height="14" viewBox="0 0 321 14" fill="none" xmlns="http://www.w3.org/2000/svg">
<path d="M11.8218 8.54494C12.042 8.54494 12.2409 8.63031 12.4183 8.80106C12.6018 8.96592 12.6936 9.15139 12.6936 9.35747C12.6936 9.52233 12.663 9.66364 12.6018 9.7814C12.2959 10.4291 11.8615 11.0326 11.2987 11.5919C10.7419 12.1454 10.0781 12.5899 9.3072 12.9255C8.53632 13.2612 7.6706 13.429 6.71005 13.429C5.76174 13.429 4.9052 13.2553 4.14043 12.9079C3.37566 12.5605 2.72102 12.0865 2.1765 11.486C1.63811 10.8795 1.22207 10.1847 0.9284 9.40163C0.640847 8.61265 0.49707 7.77951 0.49707 6.90221C0.49707 6.03668 0.643906 5.21237 0.937577 4.42928C1.23125 3.64619 1.65034 2.95435 2.19486 2.35379C2.73937 1.74733 3.39095 1.27041 4.14961 0.923022C4.90826 0.575635 5.75256 0.401941 6.68252 0.401941C7.62471 0.401941 8.4782 0.563859 9.24296 0.887695C10.0139 1.20564 10.6807 1.63252 11.2436 2.16832C11.8126 2.69823 12.2562 3.28113 12.5743 3.91703C12.6416 4.04068 12.6752 4.17021 12.6752 4.30563C12.6752 4.52349 12.5927 4.72368 12.4275 4.9062C12.2684 5.08284 12.0818 5.17116 11.8676 5.17116C11.6596 5.17116 11.47 5.12994 11.2987 5.04751C11.1335 4.95919 11.0081 4.82966 10.9224 4.65891C10.5798 3.97591 10.0414 3.39006 9.3072 2.90136C8.57914 2.41267 7.70425 2.16832 6.68252 2.16832C5.79539 2.16832 5.0245 2.38617 4.36986 2.82188C3.72133 3.25758 3.21965 3.83754 2.86479 4.56176C2.50994 5.28008 2.33251 6.06612 2.33251 6.91987C2.33251 7.77951 2.50688 8.56849 2.85562 9.28681C3.21047 10.0051 3.71216 10.5792 4.36068 11.009C5.01532 11.4388 5.79233 11.6538 6.6917 11.6538C7.36469 11.6538 7.97957 11.536 8.53632 11.3005C9.09919 11.0591 9.58558 10.7411 9.9955 10.3466C10.4054 9.95215 10.7174 9.52822 10.9316 9.07485C11.0968 8.72157 11.3935 8.54494 11.8218 8.54494Z" fill="#BC01FD"/>
<path d="M23.8759 12.5988C23.8759 12.8284 23.7872 13.0286 23.6097 13.1993C23.4384 13.3642 23.2518 13.4466 23.0499 13.4466C22.8786 13.4466 22.7287 13.3878 22.6002 13.27C22.4717 13.1581 22.383 13.0727 22.3341 13.0139C21.7773 12.637 21.294 12.2102 20.8841 11.7332C20.4803 11.2504 20.1346 10.7264 19.8471 10.1612C19.5962 9.65481 19.3393 9.26032 19.0762 8.9777C18.8192 8.69508 18.5072 8.49489 18.1401 8.37713C17.773 8.25937 17.2958 8.19755 16.7085 8.19166L15.8733 8.18283L15.8825 12.4575V12.4751C15.8825 12.7106 15.7907 12.9167 15.6072 13.0934C15.4298 13.27 15.2156 13.3583 14.9648 13.3583C14.7139 13.3583 14.4967 13.2641 14.3132 13.0757C14.1358 12.8873 14.0471 12.6635 14.0471 12.4045L14.0195 1.4441C14.0195 1.19681 14.1082 0.990733 14.2857 0.825871C14.4692 0.655122 14.6833 0.566803 14.9281 0.560915L17.3692 0.552083H17.5803C18.6326 0.552083 19.5717 0.702225 20.3977 1.00251C21.2236 1.29691 21.8752 1.74144 22.3524 2.33612C22.8297 2.92492 23.0683 3.65796 23.0683 4.53526C23.0683 5.1005 22.9459 5.60392 22.7012 6.04551C22.4626 6.48711 22.1475 6.86099 21.7559 7.16716C21.3644 7.47333 20.9422 7.71179 20.4895 7.88254C20.6975 8.13573 20.9055 8.44779 21.1135 8.81872C21.4684 9.47228 21.814 10.0522 22.1505 10.5586C22.487 11.0591 22.9306 11.5007 23.4812 11.8834C23.5914 11.954 23.6831 12.0541 23.7566 12.1837C23.8361 12.3073 23.8759 12.4457 23.8759 12.5988ZM17.6262 2.31846H15.855L15.8733 6.5401L17.6445 6.52243C18.7703 6.51066 19.6513 6.3458 20.2876 6.02785C20.93 5.7099 21.2512 5.2006 21.2512 4.49993C21.2512 3.78161 20.9116 3.23992 20.2325 2.87487C19.5534 2.50393 18.6846 2.31846 17.6262 2.31846Z" fill="#BC01FD"/>
<path d="M25.2569 1.43527C25.2569 1.19975 25.3456 0.999565 25.523 0.834703C25.7065 0.663954 25.9237 0.578579 26.1746 0.578579L34.0395 0.587411H34.0486C34.2995 0.587411 34.5136 0.675729 34.691 0.852367C34.8746 1.02312 34.9664 1.22919 34.9664 1.4706C34.9664 1.712 34.8746 1.92102 34.691 2.09766C34.5136 2.26841 34.2995 2.35379 34.0486 2.35379H34.0395L27.0923 2.34496L27.1015 5.96603L33.2869 6.01019C33.55 6.01019 33.7672 6.0985 33.9385 6.27514C34.1159 6.45178 34.2046 6.67846 34.2046 6.9552C34.2046 7.19071 34.1098 7.3909 33.9202 7.55577C33.7305 7.71474 33.5194 7.79423 33.2869 7.79423H33.2777L27.1107 7.75007L27.1198 11.486L34.0395 11.4771H34.0486C34.2995 11.4771 34.5136 11.5654 34.691 11.7421C34.8746 11.9128 34.9664 12.1189 34.9664 12.3603C34.9664 12.6017 34.8746 12.8107 34.691 12.9874C34.5136 13.1581 34.2995 13.2435 34.0486 13.2435H34.0395L26.2021 13.2523C25.9513 13.2523 25.7341 13.167 25.5505 12.9962C25.3731 12.8196 25.2844 12.6135 25.2844 12.378L25.2569 1.43527Z" fill="#BC01FD"/>
<path d="M41.2021 0.91419C41.2694 0.766992 41.3826 0.643346 41.5417 0.543251C41.7068 0.437269 41.8751 0.384277 42.0464 0.384277C42.2116 0.384277 42.3768 0.437269 42.542 0.543251C42.7133 0.643346 42.8295 0.766992 42.8907 0.91419L47.9382 12.1837C47.9932 12.3014 48.0208 12.4221 48.0208 12.5458C48.0208 12.7872 47.929 12.9962 47.7455 13.1728C47.568 13.3436 47.3539 13.429 47.103 13.429C46.9317 13.429 46.7635 13.376 46.5983 13.27C46.4331 13.164 46.3169 13.0374 46.2496 12.8902L44.6803 9.38396L39.4492 9.31331L37.8432 12.8991C37.782 13.0463 37.6689 13.1728 37.5037 13.2788C37.3385 13.3907 37.1702 13.4466 36.9989 13.4466C36.7481 13.4466 36.5309 13.3613 36.3473 13.1905C36.1699 13.0139 36.0812 12.8048 36.0812 12.5634C36.0812 12.4398 36.1087 12.3191 36.1638 12.2013L41.2021 0.91419ZM42.0464 3.50193L40.2385 7.55577L43.8818 7.59992L42.0464 3.50193Z" fill="#BC01FD"/>
<path d="M48.8878 1.47943C48.8878 1.23803 48.9765 1.03195 49.154 0.861199C49.3375 0.684561 49.5547 0.596242 49.8056 0.596242H49.8147L58.9828 0.543251H59.0011C59.252 0.543251 59.4661 0.63157 59.6435 0.808208C59.8271 0.978957 59.9189 1.18503 59.9189 1.42644C59.9189 1.66784 59.8271 1.87687 59.6435 2.0535C59.4661 2.22425 59.252 2.30963 59.0011 2.30963H58.992L55.3394 2.32729L55.2935 12.4663V12.4751C55.2935 12.7106 55.2018 12.9138 55.0182 13.0845C54.8408 13.2553 54.6267 13.3406 54.3758 13.3406C54.125 13.3406 53.9078 13.2553 53.7242 13.0845C53.5468 12.9138 53.4581 12.7106 53.4581 12.4751V12.4575L53.504 2.33612L49.8147 2.36262H49.8056C49.5547 2.36262 49.3375 2.27724 49.154 2.10649C48.9765 1.92986 48.8878 1.72084 48.8878 1.47943Z" fill="#BC01FD"/>
<path d="M62.1809 13.323C61.93 13.323 61.7128 13.2376 61.5293 13.0669C61.3518 12.8902 61.2631 12.6812 61.2631 12.4398L61.254 1.39111C61.254 1.16737 61.3396 0.964238 61.5109 0.781712C61.6822 0.599186 61.8872 0.507924 62.1258 0.507924C62.4072 0.507924 62.6367 0.593299 62.8141 0.764048C62.9976 0.92891 63.0894 1.13793 63.0894 1.39111L63.0986 12.4398C63.0986 12.6812 63.0068 12.8902 62.8233 13.0669C62.6458 13.2376 62.4317 13.323 62.1809 13.323Z" fill="#BC01FD"/>
<path d="M64.4429 1.39994C64.4429 1.19387 64.5316 1.00545 64.709 0.834703C64.8925 0.663954 65.0944 0.578579 65.3147 0.578579C65.7552 0.578579 66.0519 0.755216 66.2049 1.10849L70.6375 10.8059L74.6296 1.01134C74.7764 0.640402 75.0762 0.454932 75.5289 0.454932C75.7553 0.454932 75.9572 0.540307 76.1346 0.711057C76.3121 0.875919 76.4008 1.06433 76.4008 1.2763C76.4008 1.44116 76.3794 1.57658 76.3365 1.68256L71.546 13.376C71.4848 13.5232 71.3747 13.6527 71.2157 13.7646C71.0627 13.8823 70.8883 13.9412 70.6925 13.9412C70.3071 13.9412 70.0287 13.7646 69.8574 13.4113L64.5255 1.83271C64.4704 1.72672 64.4429 1.58247 64.4429 1.39994Z" fill="#BC01FD"/>
<path d="M77.5156 1.43527C77.5156 1.19975 77.6043 0.999565 77.7818 0.834703C77.9653 0.663954 78.1825 0.578579 78.4334 0.578579L86.2982 0.587411H86.3074C86.5583 0.587411 86.7724 0.675729 86.9498 0.852367C87.1334 1.02312 87.2251 1.22919 87.2251 1.4706C87.2251 1.712 87.1334 1.92102 86.9498 2.09766C86.7724 2.26841 86.5583 2.35379 86.3074 2.35379H86.2982L79.3511 2.34496L79.3603 5.96603L85.5457 6.01019C85.8088 6.01019 86.026 6.0985 86.1973 6.27514C86.3747 6.45178 86.4634 6.67846 86.4634 6.9552C86.4634 7.19071 86.3686 7.3909 86.1789 7.55577C85.9893 7.71474 85.7782 7.79423 85.5457 7.79423H85.5365L79.3694 7.75007L79.3786 11.486L86.2982 11.4771H86.3074C86.5583 11.4771 86.7724 11.5654 86.9498 11.7421C87.1334 11.9128 87.2251 12.1189 87.2251 12.3603C87.2251 12.6017 87.1334 12.8107 86.9498 12.9874C86.7724 13.1581 86.5583 13.2435 86.3074 13.2435H86.2982L78.4609 13.2523C78.21 13.2523 77.9928 13.167 77.8093 12.9962C77.6319 12.8196 77.5432 12.6135 77.5432 12.378L77.5156 1.43527Z" fill="#BC01FD"/>
<path d="M97.8018 7.16582C97.8018 6.05636 98.766 5.12939 99.92 5.12939C101.074 5.12939 102.038 6.05636 102.038 7.16582C102.038 8.27529 101.074 9.20226 99.92 9.20226C98.766 9.20226 97.8018 8.27529 97.8018 7.16582Z" fill="#BC01FD"/>
<path d="M195.112 7.16582C195.112 6.05636 196.077 5.12939 197.231 5.12939C198.385 5.12939 199.349 6.05636 199.349 7.16582C199.349 8.27529 198.385 9.20226 197.231 9.20226C196.077 9.20226 195.112 8.27529 195.112 7.16582Z" fill="#BC01FD"/>
<path d="M116.904 0.57638H117.045C118.146 0.57638 119.113 0.765433 119.945 1.14354C120.777 1.51555 121.472 2.02172 122.029 2.66206C122.592 3.29631 123.014 4.00983 123.296 4.80263C123.584 5.58934 123.728 6.39434 123.728 7.21763C123.728 8.47392 123.437 9.59299 122.855 10.5749C122.279 11.5567 121.425 12.3282 120.292 12.8892C119.166 13.4503 117.777 13.7308 116.125 13.7308H115.684L113.544 13.7125C113.294 13.7064 113.075 13.6119 112.887 13.4289C112.705 13.246 112.615 13.0264 112.615 12.7703L112.68 1.54604C112.68 1.3021 112.771 1.0917 112.953 0.914846C113.134 0.731891 113.35 0.637365 113.6 0.631266L116.904 0.57638ZM122.057 7.16275C122.057 6.02843 121.81 5.11365 121.315 4.41843C120.821 3.7232 120.127 3.21702 119.232 2.8999C118.337 2.57668 117.286 2.41507 116.078 2.41507C115.822 2.41507 115.565 2.41812 115.309 2.42422C115.058 2.43032 114.805 2.43947 114.548 2.45166L114.492 11.8647L115.703 11.883C116.96 11.883 118.065 11.7366 119.016 11.4439C119.973 11.1451 120.718 10.6511 121.25 9.96195C121.788 9.27282 122.057 8.33975 122.057 7.16275Z" fill="#BC01FD"/>
<path d="M127.129 13.8131C126.873 13.8131 126.651 13.7247 126.463 13.5479C126.282 13.3649 126.191 13.1484 126.191 12.8984L126.182 1.45456C126.182 1.22282 126.269 1.01242 126.444 0.823368C126.62 0.634315 126.829 0.539789 127.073 0.539789C127.361 0.539789 127.596 0.628217 127.777 0.805073C127.965 0.975831 128.059 1.19233 128.059 1.45456L128.068 12.8984C128.068 13.1484 127.974 13.3649 127.787 13.5479C127.605 13.7247 127.386 13.8131 127.129 13.8131Z" fill="#BC01FD"/>
<path d="M130.109 7.32741C130.109 6.43093 130.272 5.56799 130.597 4.7386C130.929 3.9092 131.395 3.17129 131.996 2.52485C132.602 1.87231 133.322 1.35699 134.154 0.97888C134.993 0.600774 135.919 0.411721 136.933 0.411721C137.865 0.411721 138.71 0.53674 139.467 0.786778C140.23 1.03682 140.943 1.39053 141.607 1.84791C141.876 2.02477 142.01 2.26871 142.01 2.57973C142.01 2.82367 141.916 3.03712 141.729 3.22007C141.547 3.39693 141.328 3.48536 141.072 3.48536C140.871 3.48536 140.687 3.42742 140.518 3.31155C140.03 2.98833 139.479 2.7322 138.866 2.54314C138.253 2.34799 137.624 2.25041 136.979 2.25041C136.247 2.25041 135.575 2.38763 134.961 2.66206C134.355 2.9304 133.826 3.3024 133.375 3.77809C132.931 4.24767 132.584 4.78434 132.333 5.38809C132.089 5.99184 131.967 6.62608 131.967 7.29081C131.967 8.19949 132.171 9.00754 132.577 9.71496C132.99 10.4224 133.563 10.9774 134.295 11.3799C135.033 11.7824 135.891 11.9836 136.867 11.9836C137.405 11.9836 137.937 11.9318 138.462 11.8281C138.994 11.7244 139.479 11.6055 139.917 11.4713L139.889 8.35195H137.026C136.77 8.35195 136.548 8.26352 136.36 8.08667C136.179 7.90371 136.088 7.68722 136.088 7.43718C136.088 7.18714 136.179 6.97369 136.36 6.79684C136.548 6.61388 136.77 6.52241 137.026 6.52241H140.828C141.084 6.52241 141.303 6.61083 141.485 6.78769C141.672 6.96455 141.766 7.17799 141.766 7.42803L141.804 12.1025V12.1117C141.804 12.2824 141.747 12.4471 141.635 12.6056C141.522 12.7642 141.381 12.874 141.212 12.935C140.612 13.1667 139.949 13.3741 139.223 13.557C138.497 13.7339 137.733 13.8223 136.933 13.8223C135.618 13.8223 134.445 13.5448 133.413 12.9899C132.387 12.4349 131.579 11.6695 130.991 10.6938C130.403 9.71801 130.109 8.59589 130.109 7.32741Z" fill="#BC01FD"/>
<path d="M145.177 13.8131C144.921 13.8131 144.699 13.7247 144.511 13.5479C144.33 13.3649 144.239 13.1484 144.239 12.8984L144.229 1.45456C144.229 1.22282 144.317 1.01242 144.492 0.823368C144.667 0.634315 144.877 0.539789 145.121 0.539789C145.409 0.539789 145.644 0.628217 145.825 0.805073C146.013 0.975831 146.107 1.19233 146.107 1.45456L146.116 12.8984C146.116 13.1484 146.022 13.3649 145.834 13.5479C145.653 13.7247 145.434 13.8131 145.177 13.8131Z" fill="#BC01FD"/>
<path d="M147.875 1.54604C147.875 1.296 147.966 1.08255 148.148 0.905698C148.335 0.722743 148.557 0.631266 148.814 0.631266H148.823L158.2 0.57638H158.219C158.475 0.57638 158.694 0.667857 158.876 0.850812C159.063 1.02767 159.157 1.24111 159.157 1.49115C159.157 1.74119 159.063 1.95769 158.876 2.14064C158.694 2.3175 158.475 2.40593 158.219 2.40593H158.209L154.474 2.42422L154.427 12.9258V12.935C154.427 13.1789 154.333 13.3893 154.145 13.5662C153.964 13.743 153.745 13.8314 153.488 13.8314C153.232 13.8314 153.009 13.743 152.822 13.5662C152.64 13.3893 152.55 13.1789 152.55 12.935V12.9167L152.596 2.43337L148.823 2.46081H148.814C148.557 2.46081 148.335 2.37238 148.148 2.19553C147.966 2.01257 147.875 1.79608 147.875 1.54604Z" fill="#BC01FD"/>
<path d="M165.675 0.960584C165.744 0.808122 165.86 0.680054 166.022 0.57638C166.191 0.466607 166.363 0.411721 166.539 0.411721C166.708 0.411721 166.877 0.466607 167.046 0.57638C167.221 0.680054 167.34 0.808122 167.402 0.960584L172.564 12.6331C172.621 12.7551 172.649 12.8801 172.649 13.0081C172.649 13.2582 172.555 13.4747 172.367 13.6576C172.186 13.8345 171.967 13.9229 171.71 13.9229C171.535 13.9229 171.363 13.868 171.194 13.7583C171.025 13.6485 170.906 13.5174 170.837 13.3649L169.232 9.73326L163.882 9.66008L162.24 13.3741C162.177 13.5265 162.062 13.6576 161.893 13.7674C161.724 13.8833 161.552 13.9412 161.376 13.9412C161.12 13.9412 160.898 13.8528 160.71 13.6759C160.529 13.493 160.438 13.2765 160.438 13.0264C160.438 12.8984 160.466 12.7734 160.522 12.6514L165.675 0.960584ZM166.539 3.64087L164.69 7.83968L168.416 7.88542L166.539 3.64087Z" fill="#BC01FD"/>
<path d="M175.544 13.7949C175.287 13.7949 175.065 13.7064 174.877 13.5296C174.696 13.3466 174.605 13.1332 174.605 12.8892L174.577 1.28076V1.27161C174.577 1.02767 174.668 0.820319 174.849 0.649562C175.037 0.472705 175.259 0.384277 175.516 0.384277C175.772 0.384277 175.991 0.472705 176.173 0.649562C176.36 0.820319 176.454 1.02767 176.454 1.27161L176.482 11.9653L183.588 11.947H183.597C183.854 11.947 184.073 12.0385 184.254 12.2214C184.442 12.3983 184.536 12.6117 184.536 12.8618C184.536 13.1118 184.442 13.3283 184.254 13.5113C184.073 13.6881 183.854 13.7766 183.597 13.7766H183.588L175.544 13.7949Z" fill="#BC01FD"/>
<path d="M210.852 13.323C210.601 13.323 210.384 13.2376 210.2 13.0669C210.023 12.8902 209.934 12.6812 209.934 12.4398L209.925 1.39111C209.925 1.16737 210.011 0.964238 210.182 0.781712C210.353 0.599186 210.559 0.507924 210.797 0.507924C211.079 0.507924 211.309 0.593299 211.486 0.764048C211.67 0.92891 211.762 1.13793 211.762 1.39111L211.771 12.4398C211.771 12.6812 211.679 12.8902 211.495 13.0669C211.318 13.2376 211.103 13.323 210.852 13.323Z" fill="#BC01FD"/>
<path d="M213.952 1.43527C213.952 1.18798 214.044 0.984845 214.227 0.825871C214.417 0.66101 214.641 0.578579 214.898 0.578579C215.186 0.578579 215.421 0.690449 215.605 0.91419L222.539 9.96687V1.46177C222.539 1.22625 222.628 1.02606 222.806 0.861199C222.989 0.690449 223.207 0.605074 223.458 0.605074C223.709 0.605074 223.923 0.690449 224.101 0.861199C224.284 1.02606 224.376 1.22625 224.376 1.46177L224.367 12.5369C224.367 12.7842 224.272 12.9903 224.082 13.1552C223.899 13.3142 223.678 13.3936 223.421 13.3936C223.133 13.3936 222.898 13.2759 222.714 13.0404L215.789 3.99652V12.5281C215.789 12.7636 215.697 12.9668 215.513 13.1375C215.336 13.3024 215.121 13.3848 214.87 13.3848C214.619 13.3848 214.402 13.3024 214.218 13.1375C214.04 12.9668 213.952 12.7636 213.952 12.5281V1.43527Z" fill="#BC01FD"/>
<path d="M226.327 1.43527C226.327 1.18798 226.419 0.984845 226.603 0.825871C226.793 0.66101 227.016 0.578579 227.273 0.578579C227.561 0.578579 227.797 0.690449 227.981 0.91419L234.915 9.96687V1.46177C234.915 1.22625 235.004 1.02606 235.181 0.861199C235.365 0.690449 235.582 0.605074 235.833 0.605074C236.085 0.605074 236.299 0.690449 236.476 0.861199C236.66 1.02606 236.752 1.22625 236.752 1.46177L236.743 12.5369C236.743 12.7842 236.648 12.9903 236.458 13.1552C236.274 13.3142 236.054 13.3936 235.797 13.3936C235.509 13.3936 235.273 13.2759 235.09 13.0404L228.164 3.99652V12.5281C228.164 12.7636 228.072 12.9668 227.889 13.1375C227.711 13.3024 227.497 13.3848 227.246 13.3848C226.995 13.3848 226.777 13.3024 226.594 13.1375C226.416 12.9668 226.327 12.7636 226.327 12.5281V1.43527Z" fill="#BC01FD"/>
<path d="M244.903 0.419605C245.84 0.419605 246.7 0.596242 247.484 0.949518C248.273 1.29691 248.959 1.77677 249.541 2.38911C250.123 2.99557 250.573 3.69623 250.891 4.4911C251.209 5.28008 251.369 6.11911 251.369 7.00819C251.369 7.89726 251.209 8.73335 250.891 9.51644C250.579 10.2936 250.135 10.9796 249.559 11.5743C248.984 12.169 248.301 12.6341 247.511 12.9697C246.727 13.3053 245.861 13.4731 244.912 13.4731C243.944 13.4731 243.066 13.3053 242.276 12.9697C241.486 12.6282 240.806 12.1601 240.237 11.5654C239.674 10.9649 239.239 10.273 238.933 9.48995C238.627 8.70097 238.473 7.85605 238.473 6.9552C238.473 6.0779 238.633 5.2477 238.951 4.46461C239.276 3.68151 239.726 2.98674 240.301 2.38028C240.883 1.76794 241.563 1.28807 242.34 0.940686C243.124 0.593299 243.978 0.419605 244.903 0.419605ZM244.939 2.21248C244.033 2.21248 243.231 2.43916 242.533 2.89253C241.841 3.3459 241.296 3.94647 240.898 4.69424C240.506 5.43611 240.31 6.24865 240.31 7.13183C240.31 7.7324 240.43 8.30648 240.669 8.85405C240.907 9.40163 241.238 9.89033 241.661 10.3201C242.083 10.7441 242.57 11.0797 243.121 11.327C243.678 11.5684 244.272 11.6891 244.903 11.6891C245.533 11.6891 246.127 11.5625 246.685 11.3093C247.248 11.0561 247.744 10.7146 248.172 10.2848C248.607 9.855 248.947 9.37219 249.192 8.83639C249.437 8.2947 249.559 7.74123 249.559 7.17599C249.559 6.26337 249.351 5.43317 248.935 4.6854C248.525 3.93175 247.97 3.33118 247.272 2.8837C246.574 2.43622 245.797 2.21248 244.939 2.21248Z" fill="#BC01FD"/>
<path d="M252.622 1.39994C252.622 1.19387 252.711 1.00545 252.888 0.834703C253.072 0.663954 253.274 0.578579 253.494 0.578579C253.935 0.578579 254.232 0.755216 254.385 1.10849L258.821 10.8059L262.817 1.01134C262.964 0.640402 263.264 0.454932 263.717 0.454932C263.943 0.454932 264.145 0.540307 264.323 0.711057C264.501 0.875919 264.589 1.06433 264.589 1.2763C264.589 1.44116 264.568 1.57658 264.525 1.68256L259.731 13.376C259.669 13.5232 259.559 13.6527 259.4 13.7646C259.247 13.8823 259.072 13.9412 258.877 13.9412C258.491 13.9412 258.212 13.7646 258.041 13.4113L252.704 1.83271C252.649 1.72672 252.622 1.58247 252.622 1.39994Z" fill="#BC01FD"/>
<path d="M270.977 0.91419C271.044 0.766992 271.157 0.643346 271.317 0.543251C271.482 0.437269 271.65 0.384277 271.822 0.384277C271.987 0.384277 272.152 0.437269 272.318 0.543251C272.489 0.643346 272.605 0.766992 272.667 0.91419L277.718 12.1837C277.773 12.3014 277.801 12.4221 277.801 12.5458C277.801 12.7872 277.709 12.9962 277.525 13.1728C277.348 13.3436 277.133 13.429 276.882 13.429C276.711 13.429 276.543 13.376 276.377 13.27C276.212 13.164 276.096 13.0374 276.028 12.8902L274.458 9.38396L269.222 9.31331L267.615 12.8991C267.554 13.0463 267.441 13.1728 267.275 13.2788C267.11 13.3907 266.942 13.4466 266.77 13.4466C266.519 13.4466 266.302 13.3613 266.118 13.1905C265.94 13.0139 265.852 12.8048 265.852 12.5634C265.852 12.4398 265.879 12.3191 265.934 12.2013L270.977 0.91419ZM271.822 3.50193L270.012 7.55577L273.659 7.59992L271.822 3.50193Z" fill="#BC01FD"/>
<path d="M279.045 1.47943C279.045 1.23803 279.134 1.03195 279.311 0.861199C279.495 0.684561 279.712 0.596242 279.963 0.596242H279.972L289.148 0.543251H289.166C289.417 0.543251 289.632 0.63157 289.809 0.808208C289.993 0.978957 290.085 1.18503 290.085 1.42644C290.085 1.66784 289.993 1.87687 289.809 2.0535C289.632 2.22425 289.417 2.30963 289.166 2.30963H289.157L285.502 2.32729L285.456 12.4663V12.4751C285.456 12.7106 285.364 12.9138 285.18 13.0845C285.003 13.2553 284.788 13.3406 284.537 13.3406C284.286 13.3406 284.069 13.2553 283.885 13.0845C283.708 12.9138 283.619 12.7106 283.619 12.4751V12.4575L283.665 2.33612L279.972 2.36262H279.963C279.712 2.36262 279.495 2.27724 279.311 2.10649C279.134 1.92986 279.045 1.72084 279.045 1.47943Z" fill="#BC01FD"/>
<path d="M292.725 13.323C292.474 13.323 292.256 13.2376 292.073 13.0669C291.895 12.8902 291.806 12.6812 291.806 12.4398L291.797 1.39111C291.797 1.16737 291.883 0.964238 292.054 0.781712C292.226 0.599186 292.431 0.507924 292.67 0.507924C292.951 0.507924 293.181 0.593299 293.358 0.764048C293.542 0.92891 293.634 1.13793 293.634 1.39111L293.643 12.4398C293.643 12.6812 293.551 12.8902 293.368 13.0669C293.19 13.2376 292.976 13.323 292.725 13.323Z" fill="#BC01FD"/>
<path d="M302.024 0.419605C302.96 0.419605 303.821 0.596242 304.604 0.949518C305.394 1.29691 306.08 1.77677 306.662 2.38911C307.244 2.99557 307.694 3.69623 308.012 4.4911C308.33 5.28008 308.49 6.11911 308.49 7.00819C308.49 7.89726 308.33 8.73335 308.012 9.51644C307.7 10.2936 307.256 10.9796 306.68 11.5743C306.105 12.169 305.422 12.6341 304.632 12.9697C303.848 13.3053 302.982 13.4731 302.033 13.4731C301.065 13.4731 300.187 13.3053 299.397 12.9697C298.607 12.6282 297.927 12.1601 297.358 11.5654C296.795 10.9649 296.36 10.273 296.054 9.48995C295.747 8.70097 295.594 7.85605 295.594 6.9552C295.594 6.0779 295.754 5.2477 296.072 4.46461C296.397 3.68151 296.847 2.98674 297.422 2.38028C298.004 1.76794 298.683 1.28807 299.461 0.940686C300.245 0.593299 301.099 0.419605 302.024 0.419605ZM302.06 2.21248C301.154 2.21248 300.352 2.43916 299.654 2.89253C298.962 3.3459 298.417 3.94647 298.019 4.69424C297.627 5.43611 297.431 6.24865 297.431 7.13183C297.431 7.7324 297.551 8.30648 297.79 8.85405C298.028 9.40163 298.359 9.89033 298.781 10.3201C299.204 10.7441 299.691 11.0797 300.242 11.327C300.799 11.5684 301.393 11.6891 302.024 11.6891C302.654 11.6891 303.248 11.5625 303.805 11.3093C304.369 11.0561 304.865 10.7146 305.293 10.2848C305.728 9.855 306.068 9.37219 306.313 8.83639C306.558 8.2947 306.68 7.74123 306.68 7.17599C306.68 6.26337 306.472 5.43317 306.056 4.6854C305.645 3.93175 305.091 3.33118 304.393 2.8837C303.695 2.43622 302.918 2.21248 302.06 2.21248Z" fill="#BC01FD"/>
<path d="M310.202 1.43527C310.202 1.18798 310.294 0.984845 310.477 0.825871C310.667 0.66101 310.891 0.578579 311.148 0.578579C311.436 0.578579 311.671 0.690449 311.855 0.91419L318.79 9.96687V1.46177C318.79 1.22625 318.878 1.02606 319.056 0.861199C319.24 0.690449 319.457 0.605074 319.708 0.605074C319.959 0.605074 320.173 0.690449 320.351 0.861199C320.535 1.02606 320.626 1.22625 320.626 1.46177L320.617 12.5369C320.617 12.7842 320.522 12.9903 320.333 13.1552C320.149 13.3142 319.928 13.3936 319.671 13.3936C319.383 13.3936 319.148 13.2759 318.964 13.0404L312.039 3.99652V12.5281C312.039 12.7636 311.947 12.9668 311.763 13.1375C311.586 13.3024 311.371 13.3848 311.12 13.3848C310.869 13.3848 310.652 13.3024 310.468 13.1375C310.291 12.9668 310.202 12.7636 310.202 12.5281V1.43527Z" fill="#BC01FD"/>
</svg>
