<svg width="321" height="64" viewBox="0 0 321 64" fill="none" xmlns="http://www.w3.org/2000/svg">
<path d="M56.0229 57.9426C56.0229 60.5135 53.898 62.6059 51.3594 62.6059C49.3358 62.6059 47.5881 61.3367 47.0406 59.6579L43.2003 49.4757H12.8227L8.98229 59.6579C8.32939 61.3043 6.58163 62.6059 4.66351 62.6059C2.0925 62.6059 0 60.4811 0 57.9426C0 57.3952 0.170292 56.7423 0.377108 56.1949L20.5356 5.66087C21.6346 2.71285 24.5828 0.519043 27.977 0.519043C31.3712 0.519043 34.3194 2.71285 35.4873 5.66087L55.6458 56.1949C55.8526 56.6734 56.0229 57.3263 56.0229 57.9426ZM40.1833 41.3493L27.977 8.98599L15.8721 41.3493H40.1792H40.1833Z" fill="#1D1D1D"/>
<path d="M115.919 34.9383V48.9607C115.919 51.4302 115.266 53.2793 113.449 54.9257C107.76 60.0675 100.351 63.3602 91.2672 63.3602C73.7486 63.3602 59.5513 50.7084 59.5513 31.6456C59.5513 12.5828 73.781 0 91.2672 0C100.42 0 107.143 3.22376 112.285 8.32906C113.109 9.05086 113.555 10.1457 113.555 11.346C113.555 13.7466 111.637 15.5633 109.236 15.5633C108.137 15.5633 107.042 15.1172 106.219 14.363C102.447 10.5918 97.2365 8.12225 91.2712 8.12225C78.5176 8.12225 68.9837 17.8584 68.9837 31.6051C68.9837 45.3517 78.5135 55.1568 91.2712 55.1568C98.0597 55.1568 103.818 51.8641 106.77 49.0904V38.085H90.7237C88.5299 38.085 86.6766 36.2684 86.6766 33.9692C86.6766 31.67 88.4934 30.0276 90.7237 30.0276H111.089C114.175 30.0601 115.923 31.8119 115.923 34.9302L115.919 34.9383Z" fill="#1D1D1D"/>
<path d="M127.646 58.0478V5.14565C127.646 2.67612 129.771 0.55127 132.31 0.55127C134.849 0.55127 136.803 2.67612 136.803 5.14565V58.0478C136.803 60.5174 134.78 62.6422 132.31 62.6422C129.84 62.6422 127.646 60.5174 127.646 58.0478Z" fill="#1D1D1D"/>
<path d="M150.481 57.326V5.14565C150.481 2.67612 152.606 0.55127 155.145 0.55127C157.684 0.55127 159.638 2.67612 159.638 5.14565V54.1023H183.742C185.936 54.1023 187.858 55.85 187.858 58.0438C187.858 60.2376 185.94 62.1596 183.742 62.1596H155.457C152.233 62.1921 150.486 60.4444 150.486 57.326H150.481Z" fill="#1D1D1D"/>
<path d="M197.555 58.0478V5.14565C197.555 2.67612 199.68 0.55127 202.218 0.55127C204.757 0.55127 206.711 2.67612 206.711 5.14565V58.0478C206.711 60.5174 204.688 62.6422 202.218 62.6422C199.749 62.6422 197.555 60.5174 197.555 58.0478Z" fill="#1D1D1D"/>
<path d="M235.337 58.0482V9.09156H219.906C217.713 9.09156 215.859 7.34385 215.859 5.15007C215.859 2.95628 217.676 1.03418 219.906 1.03418H259.814C262.008 1.03418 263.93 2.85085 263.93 5.15007C263.93 7.44928 262.012 9.09156 259.814 9.09156H244.489V58.0482C244.489 60.5177 242.364 62.6426 239.895 62.6426C237.425 62.6426 235.337 60.5177 235.337 58.0482Z" fill="#1D1D1D"/>
<path d="M319.337 7.33942L299.726 36.5844V58.0478C299.726 60.5174 297.702 62.6422 295.131 62.6422C292.56 62.6422 290.537 60.5174 290.537 58.0478V36.5844L270.824 7.40837C270.378 6.75551 270.103 5.86744 270.103 4.93884C270.103 2.46931 272.126 0.55127 274.49 0.55127C276.031 0.55127 277.438 1.27306 278.262 2.57474L295.131 28.4257L311.896 2.57474C312.719 1.37444 314.09 0.55127 315.667 0.55127C318.068 0.55127 320.055 2.46931 320.055 4.93884C320.055 5.86339 319.779 6.68656 319.333 7.33942H319.337Z" fill="#1D1D1D"/>
</svg>
