<svg width="503" height="332" viewBox="0 0 503 332" fill="none" xmlns="http://www.w3.org/2000/svg">
<path d="M11.2375 185.174C-2.70076 171.236 -2.70076 148.637 11.2375 134.699L134.699 11.2375C148.637 -2.70077 171.236 -2.70077 185.174 11.2375C199.112 25.1759 199.112 47.7743 185.174 61.7126L61.7126 185.174C47.7743 199.112 25.1759 199.112 11.2375 185.174Z" fill="#151515"/>
<path d="M42.1659 310.834C23.2966 291.965 23.2966 261.372 42.1659 242.502L262.502 22.166C281.372 3.29673 311.965 3.29672 330.834 22.166C349.703 41.0353 349.703 71.6285 330.834 90.4978L110.498 310.834C91.6284 329.704 61.0352 329.704 42.1659 310.834Z" fill="#151515"/>
<path d="M208.255 311.769C191.546 295.06 191.546 267.969 208.255 251.26L414.26 45.2548C430.969 28.5456 458.06 28.5456 474.769 45.2548V45.2548C491.478 61.9641 491.478 89.0552 474.769 105.764L268.764 311.769C252.055 328.479 224.964 328.479 208.255 311.769V311.769Z" fill="#151515"/>
<path d="M347.621 324.379C337.889 314.647 337.889 298.868 347.621 289.136L460.136 176.621C469.868 166.889 485.647 166.889 495.379 176.621V176.621C505.111 186.353 505.111 202.132 495.379 211.864L382.864 324.379C373.132 334.111 357.353 334.111 347.621 324.379V324.379Z" fill="#151515"/>
</svg>
